<svg xmlns="http://www.w3.org/2000/svg" viewBox="45.38 49.23 934.51 1438.04"><metadata xmlns:fl="https://football-logos.cc/brazil/copa-do-nordeste">dl1_609fe7251a0f657ca8f14e49b7685ffe57eacc871148ea787891465890127a9d</metadata><defs><path d="M83 86L71 73L2 4L177 182L223 210L0 103Z"/></defs><!-- Source: https://football-logos.cc --><path fill="#39a184" fill-rule="evenodd" d="M45.94 49.23h933.39a.56.56 29.056 0 1 .56.56v1436.92a.56.56 29.812 0 1-.56.56H45.94a.56.56-7.357 0 1-.56-.56V49.79a.56.56-38.851 0 1 .56-.56m276.25 849.91q-3.3 1.14-3.73 3.37.02 21.62-.54 42.73-.06 2.2 1 3.35 1.83 2 6.23 4.28 6.33 3.28 14.48 5.74 14.9 4.51 30.36 6.8a.747.738 4.566 0 1 .63.73l.05 20.2q-4.58.49-9.1.73c-8.36.46-16.82 1.47-25.05 2.31q-9.96 1.01-25.46 3.96c-8.83 1.69-19.22 4.1-27.03 8.69q-1.79 1.05-3.96 3.3-22.71 28.18-44.36 57.85a1.802 1.796-39.86 0 0-.17 1.86c1.6 3.34 6.26 6.25 9.64 8.11q5.6 3.08 15.4 6.47 10.12 3.5 22.96 6.29 38.65 8.4 84.24 12.72c64.61 6.12 129.44 7.29 193.97 5.68q55.08-1.38 101.25-6.08c28.87-2.94 58.26-7.21 85.46-14.07q10.68-2.69 18.59-5.65c8.46-3.17 16.45-6.47 21.56-13.12a1.741 1.721-42.121 0 0 .11-1.96q-.91-1.51-2.46-3.6-16.46-22.24-41.93-54.09a.268.247 69.183 0 0-.2-.1q-.16 0-.34-.1c-1.84-3.47-9.5-6.29-12.79-7.31-16.28-5.04-35.23-7.98-52.91-9.94q-10.59-1.17-20.85-1.54-.54-.02-1.2-.64l-.14-19.93a.957.954 85.944 0 1 .83-.96q14.25-1.96 28.31-6.42c6.76-2.14 15.06-5.15 20.65-10.02a2.744 2.727-20.566 0 0 .93-2.03l.1-43.87q-.71-1.65-3.11-3.71.04-1.29.33-2.24 7.66-24.88 18.65-50.08 19.44-44.54 39.94-89.6c5.34-11.74 9.04-20.22 13.91-30.78q37.86-82.16 44.22-96.78c26.57-61.04 42.58-97.11 60.42-145.33q17.74-47.92 30.15-96.06 13.66-52.96 16.07-109.3 1.18-27.46-2.27-53.24c-3.42-25.58-10.86-51.39-25.16-71.75q-27.33-38.93-75.95-45.26-25.41-3.31-51.96 2.36c-34.8 7.43-67.63 22.71-97.07 42.5-18.9 12.72-36.47 27.33-50.07 45.68-8.37 11.3-15.24 25.65-15.48 39.74q-.1 5.57-.02 23.54a.44.44-45 0 1-.44.44H418.85a.53.53 89.449 0 1-.53-.52q-.09-7.51.02-15.12.16-10.51-.79-15.73-2.89-15.86-12.48-29.5-15.74-22.4-37.67-38.83-27.25-20.42-59.21-34.98c-31.52-14.37-65.89-23.31-100.17-20.13-34.16 3.16-63.55 19.32-82.51 48.35-15 22.98-22.5 51.65-25.05 79.18q-1.7 18.28-1.59 32.77.43 57.95 14.57 116.3 4.65 19.16 6.89 26.88 13.54 46.73 31.27 92.76 19.16 49.75 40.27 97.22 32.11 72.24 63.96 141.75 17.61 38.45 17.93 39.13 20.68 44.36 34.35 77.33 6.04 14.56 13.01 35.26.33.97 1.07 4.01m418.91 374.84v11.46a1.13 1.12 90 0 0 1.12 1.13h32.62a.39.38 90 0 0 .38-.39v-26.45a.79.79 45.023 0 0-.79-.79h-5.49a1.16 1.16 36.846 0 1-1.16-1.16v-110.11a.74.74-78.747 0 0-.74-.74h-27.53a.62.62 5.845 0 0-.62.62v47.03a.29.288-67.961 0 1-.49.21q-9.06-8.97-21.68-11c-19.42-3.12-37.4 4.79-47.97 21.38q-8.43 13.21-8.69 28.4c-.35 20.44 8.3 40.37 26.72 49.65 17.65 8.9 40.58 6.28 53.7-9.47a.353.351 65.141 0 1 .62.23m-489.37-79.04c-4.22-10.98-10.11-20.86-19.34-27.79q-19.52-14.68-44.14-13.88c-22.1.72-41.2 10.76-53.87 28.62-22.78 32.13-12.75 80 22.08 98.34q23.32 12.28 50.86 5.88c20.95-4.88 38.48-19.05 44.49-40.05a.402.396 8.767 0 0-.38-.51l-30.84-.45a1.638 1.613 19.216 0 0-1.33.63q-8.34 10.66-21.59 13.11c-10.76 2-23.66-.39-31.61-7.66-15.37-14.06-17.75-37.99-5.09-54.84 9.6-12.77 26.09-17.14 41.18-12.48 7.7 2.37 13.07 7.04 17.59 13.6a.775.762-18.923 0 0 .71.34l31.08-2.55a.23.229-12.218 0 0 .2-.31m62.608 93.412c16.407-.19 31.332-6.6 41.679-19.151 11.473-13.921 14.403-34.341 8.683-51.317-7.531-22.349-27.881-35.107-51.2-34.837-16.407.18-31.332 6.591-41.679 19.141-11.473 13.922-14.403 34.342-8.682 51.318 7.53 22.349 27.88 35.107 51.199 34.846m93.792-103.512h-31.04a1.2 1.19 89.526 0 0-1.19 1.22l.47 25.42a.855.834-80.427 0 0 .54.78q.88.32 2.6.13a1.242 1.235-4.306 0 1 1.38 1.18q.63 15.92.41 30.34c-.41 26.46-.19 40.28-.11 78.93a.49.48 90 0 0 .48.49h27.25a.51.51 74.828 0 0 .51-.51v-46.01a.728.725 23.598 0 1 1.26-.49c13.06 13.97 34.72 14.93 51.14 6.55 8.88-4.52 17.14-13.34 21.25-22.34q7.46-16.34 4.85-34.75c-2.85-20.25-16.3-37.04-36.46-41.46q-12.66-2.77-24.45.75c-7.54 2.26-12.6 5.68-17.42 11.87a.504.503 63.949 0 1-.9-.31v-11.23a.57.56 0 0 0-.57-.56m424.733-1.49c-16.31 1.044-30.821 8.198-40.458 21.221-10.687 14.444-12.537 34.908-5.963 51.495 8.655 21.837 29.561 33.467 52.741 31.983 16.311-1.034 30.822-8.188 40.459-21.211 10.687-14.444 12.537-34.908 5.963-51.495-8.655-21.837-29.561-33.467-52.742-31.993m-229.033 102.6v-26.11a.68.68-.011 0 0-.68-.68h-6.81a1.35 1.35 89.786 0 1-1.35-1.34q-.07-14.86-.09-28.73-.02-14.14-2.14-20.35-4.9-14.33-19.92-21.06-4.24-1.89-10.11-3.08-19.46-3.91-37.24 2.66-9.19 3.41-14.27 9.5-8.09 9.72-8.86 22.46a.462.452-88.209 0 0 .45.49h27.62a.901.89-83.489 0 0 .87-.7c1.57-7 8.07-10.78 15.15-11 8.39-.26 19.76 1.23 19.39 11.83a2.245 2.243 83.272 0 1-1.64 2.08c-4.41 1.24-8.25 2.1-12.65 2.23q-13.5.4-27.55 3.14-9.41 1.83-16.33 8c-8.83 7.87-10.91 21.55-7.14 32.49q4.38 12.7 17.12 17.35c12.54 4.57 29.53 4.48 41.71-2.54q6.8-3.92 11.56-8.65a.624.621-22.322 0 1 1.06.44v11.55a.66.65-90 0 0 .65.66h30.56a.64.64 5.827 0 0 .64-.64m-109.7 162.97v11.52a1.03 1.03-82.55 0 0 1.03 1.03h32.82a.86.85 90 0 0 .85-.86v-26.39a.73.72 90 0 0-.72-.73h-6.44a1.56 1.56 45 0 1-1.56-1.56V1321.5a.6.6-8.158 0 0-.6-.6h-26.78a.71.7 0 0 0-.71.7v47.73a.427.425-68.185 0 1-.72.31q-14.62-13.77-35.17-11.5-13.52 1.5-23.88 10.17c-4.58 3.83-8.48 7.5-11.23 12.48-12.59 22.79-10.5 52.6 9.13 71.06q6.25 5.88 15.43 8.82c17.24 5.53 36.52 2.47 47.98-11.94a.32.316-26.145 0 1 .57.19m275.33-124.29v34a.61.61-44.973 0 1-.61.61h-13.78a.65.65 45 0 0-.65.65v23.02a.74.74 11.228 0 0 .74.74h13.54a.6.6 89.514 0 1 .6.59q.34 26.97.23 54.52c-.04 9.14 2.94 17.37 11.46 21.13q4.38 1.93 14.31 1.68 1.88-.05 25.91-.06a.33.33 0 0 0 .33-.33v-24.88a.41.41-.682 0 0-.42-.41q-5.47.18-18.89-.04c-4.28-.07-4.29-2.64-4.29-6.35q.04-41.27.09-45.27a.55.55 32.066 0 1 .55-.55h22.21a.72.72-15.175 0 0 .72-.72v-23.18a.45.45 11.218 0 0-.45-.45h-22.25a.91.91 25.149 0 1-.91-.91v-33.64a.7.7 3.44 0 0-.7-.7h-27.19a.55.55 89.989 0 0-.55.55m-592.281 4.729a.3.3 75.637 0 0-.299.3l-.039 92.776a.3.3-76.295 0 1-.572.126l-43.288-93.097a.3.3 31.856 0 0-.272-.174l-38.619.02a.3.3-7.434 0 0-.3.3l.03 131.59a.3.3-1.738 0 0 .3.3h28.099a.3.3-12.608 0 0 .3-.301l-.168-87.169a.3.3 61.443 0 1 .517-.208l.747.781a.3.3 54.252 0 1 .056.083L163 1461.324a.3.3 81.777 0 0 .273.176l42.107-.02a.3.3-6.663 0 0 .3-.3l-.04-131.599a.3.3-79.11 0 0-.301-.3zM933.81 1429.52a.615.608-80.147 0 0-.57-.82h-28.33a1.169 1.159-71.808 0 0-.94.48c-6.37 8.49-19.64 10.39-29.14 7.26q-11.49-3.78-15.08-15.65a.421.418 81.699 0 1 .4-.54h74.52a.684.682-87.724 0 0 .68-.63c.83-11.18-.56-24.36-5.74-34.31-10.9-20.9-32.68-30.17-55.57-26.66-25.57 3.93-43.01 24.08-43.99 49.86-.91 23.75 11.55 44.31 34.48 51.91 17.68 5.86 39.19 3.3 53.81-8.66q10.57-8.64 15.47-22.24m-662.814-71.65c-16.449.19-31.412 6.616-41.785 19.198-11.503 13.957-14.44 34.428-8.706 51.447 7.549 22.406 27.95 35.196 51.328 34.927 16.449-.181 31.411-6.607 41.784-19.189 11.503-13.957 14.441-34.428 8.707-51.447-7.55-22.406-27.951-35.196-51.328-34.936m370.158 71.561a.616.608-80.175 0 0-.571-.821l-28.357.014a1.17 1.161-71.836 0 0-.94.481c-6.372 8.501-19.654 10.41-29.165 7.281q-11.502-3.778-15.102-15.657a.421.418 81.671 0 1 .401-.541l74.59-.037a.685.683-87.752 0 0 .681-.63c.825-11.191-.573-24.383-5.763-34.34-10.92-20.915-32.726-30.183-55.636-26.658-25.592 3.946-43.039 24.124-44.007 49.929-.899 23.773 11.583 44.346 34.539 51.942 17.699 5.857 39.228 3.284 53.856-8.695q10.576-8.653 15.474-22.268m44.316-35.831c-4.63-3.9-.91-9.04 3.66-10.38q7.06-2.07 15.86-.62c6.76 1.11 12.28 2.83 14.48 9.53a1.399 1.398-8.543 0 0 1.3.96l24.72.36a.88.88-89.012 0 0 .89-.86q.2-9.21-4.47-15.94c-5.49-7.92-13.8-13.41-23.66-16.19q-19.68-5.54-39.2.53c-10.59 3.29-21.42 12.06-22.95 23.52q-.74 5.57.28 11.16c1.65 9.13 9.68 16.47 17.98 19.73 12.43 4.88 25.47 6.74 38.86 9.66 3.59.78 8.07 2.41 7.64 6.45-1.06 10.01-22.55 7.53-28.92 5.86-5.41-1.42-9.74-4.92-11.04-10.39a.711.705-6.711 0 0-.69-.54h-26.95a.631.624-2.108 0 0-.63.67q.87 12.76 8.92 22.21c5.27 6.17 14.53 10.27 22.44 12.09 18.07 4.15 43.75 2.93 57.23-11.45 7.65-8.17 10.21-20.97 5.5-31.01-2.94-6.28-10.12-11.52-17.58-13.93q-7.25-2.35-9.39-2.78-26.37-5.26-27.67-5.6-4.29-1.09-6.61-3.04m-319.54-20.65v-12.87a.69.69-75.871 0 0-.69-.69h-31.75a.17.17-12.342 0 0-.17.17v27.28a.71.71.409 0 0 .7.71l5.55.08a.72.72.404 0 1 .71.72v72.42a.69.69-45 0 0 .69.69h26.94a.62.61 0 0 0 .62-.61q.04-34.01 0-46.49c-.03-11.6 3.47-24.99 16.48-27.65 7.72-1.57 14.21-1.05 22.55-.23a.622.616-86.621 0 0 .68-.61l.38-25.84a.827.823-85.67 0 0-.71-.83c-16.11-2.15-31.07.49-41.24 14a.412.412-26.331 0 1-.74-.25" data-source="https://football-logos.cc"></path><path fill="#dca82f" fill-rule="evenodd" d="M703.61 899.17q-1.07 1.36-1.64 3.92a.861.857-89.455 0 1-.67.66q-2.52.49-5.29.49-11.07-.02-27.75.24a.605.604-78.091 0 1-.56-.86l3.66-7.66c6.37-12.21 12.22-24.86 18.23-37.34q51.34-106.5 71.71-149.53 33.22-70.18 58.68-130.84c17.31-41.27 33-84.24 45.49-127.76 15.55-54.18 25.04-110.2 20.79-166.22q-1.19-15.72-4.04-29.19c-5.02-23.75-12.92-45.86-27.73-63.4q-23.59-27.95-61.11-28.09-15.19-.06-29.2 3.4c-30.78 7.6-59.36 24.64-81.85 46.84-12.84 12.67-25.24 30.66-25.63 49.1a.61.61-89.538 0 0 .61.62q55.32.14 113.69 3.64 7.78.47 11.59.98a.787.784-85.417 0 1 .67.79l-.66 45.17a.691.683-87.64 0 1-.73.68q-17.84-1.2-35.36-1.7-44.79-1.28-89.75-1.42l-46.42-.27-193.09-.02-46.72.44q-15.73-.15-31.78.15-48.21.92-94.16 2.61a.451.45-1.219 0 1-.47-.45V268.6a.422.412 87.795 0 1 .38-.42q15.44-1.38 30.5-2.13 46.01-2.29 94.81-2.44a.73.73 88.869 0 0 .73-.76c-.61-12.75-6.06-25.24-13.53-35.11-16.59-21.92-40.01-39.14-64.93-50.58-22.84-10.48-48.8-16.31-73.82-12.12-43.59 7.31-65.54 49.02-73.6 88.59q-5.37 26.38-5.66 53.9-.46 44.5 8.22 88.81 5.89 30.02 15.6 63.08 11.52 39.21 26.2 77.83 16.25 42.72 33.21 81.05 19.11 43.2 37.03 80.69c3.84 8.04 7.13 15.73 10.88 23.49q55.7 115.27 65.21 135.13c2.31 4.82 5.48 10.74 7.92 16.32 3.11 7.07 7.07 14.55 10.69 21.8l3.54 7.73a.698.698 77.901 0 1-.64.99l-30.98-.45a2.568 2.547-10.678 0 1-2.32-1.57l-1.37-3.29q-.74-3.04-1.07-4.01-6.97-20.7-13.01-35.26-13.67-32.97-34.35-77.33-.32-.68-17.93-39.13-31.85-69.51-63.96-141.75-21.11-47.47-40.27-97.22-17.73-46.03-31.27-92.76-2.24-7.72-6.89-26.88-14.14-58.35-14.57-116.3-.11-14.49 1.59-32.77c2.55-27.53 10.05-56.2 25.05-79.18 18.96-29.03 48.35-45.19 82.51-48.35 34.28-3.18 68.65 5.76 100.17 20.13q31.96 14.56 59.21 34.98 21.93 16.43 37.67 38.83 9.59 13.64 12.48 29.5.95 5.22.79 15.73-.11 7.61-.02 15.12a.53.53 89.449 0 0 .53.52h190.03a.44.44 45 0 0 .44-.44q-.08-17.97.02-23.54c.24-14.09 7.11-28.44 15.48-39.74 13.6-18.35 31.17-32.96 50.07-45.68 29.44-19.79 62.27-35.07 97.07-42.5q26.55-5.67 51.96-2.36 48.62 6.33 75.95 45.26c14.3 20.36 21.74 46.17 25.16 71.75q3.45 25.78 2.27 53.24-2.41 56.34-16.07 109.3-12.41 48.14-30.15 96.06c-17.84 48.22-33.85 84.29-60.42 145.33q-6.36 14.62-44.22 96.78c-4.87 10.56-8.57 19.04-13.91 30.78q-20.5 45.06-39.94 89.6-10.99 25.2-18.65 50.08-.29.95-.33 2.24"></path><path fill="#39a184" fill-rule="evenodd" d="m671.36 895.96-15.41-.31-.08-22.61 2.37-1.01a3.366 3.333-89.885 0 0 1.79-1.8l17.09-40.77q-5.95-2.6-9.74-3.36-2.65-.53-11.32-1.49l-.17-22.54q16.65-3.36 32.33-10.76a3.155 3.098-1.77 0 0 1.57-1.64l16.03-38.52q-.89-1.09-1.81-1.42c-6.08-2.2-11.94-4.05-18.48-5.15q-14.4-2.41-29.21-3.84l-.13-15.8q22.45-2.87 41.56-6.43 8.71-1.62 20.65-4.95c1.47-.41 2.67-.53 3.33-2.05q2.74-6.28 5.52-14.22.68-1.95 5.12-13.2 2.57-6.49 4.61-13.37-.85-.4-2.48-.63-41.59-5.87-77.97-7.54l.03-17.3q32.16-1.58 63.67-5.57 15.81-2 27.53-4.55a2.196 2.184-88.412 0 0 1.65-1.57l11.02-40.32a.461.46-76.916 0 0-.36-.58q-1.64-.28-3.27.07-.2-.55-1.05-.61-48.92-3.38-97.93-5.21-.73-.03-1.18-1.15l-.1-23.08q7.02-.16 14.31-.53 11.64-.58 14.32-.58c6.55-.02 12.3-.61 19.11-.86q32.93-1.2 63.91-3.98a.589.581 1.839 0 0 .53-.49l6.01-41.05a.749.741-86.029 0 0-.74-.86l-117.38 1.46.05-35.99 121.32-1.95a.903.893.675 0 0 .88-.85l2.12-42.3a.5.5-45 0 0-.48-.52q-61.84-1.99-123.75-2.31l-.19-36.5 124.63 1.65a.75.75 0 0 0 .76-.74l.65-44.35a.791.782-88.11 0 0-.74-.8q-62.68-3.13-125.21-3.52l.11-35.92q44.96.14 89.75 1.42 17.52.5 35.36 1.7a.691.683-87.64 0 0 .73-.68l.66-45.17a.787.784-85.417 0 0-.67-.79q-3.81-.51-11.59-.98-58.37-3.5-113.69-3.64a.61.61-89.538 0 1-.61-.62c.39-18.44 12.79-36.43 25.63-49.1 22.49-22.2 51.07-39.24 81.85-46.84q14.01-3.46 29.2-3.4 37.52.14 61.11 28.09c14.81 17.54 22.71 39.65 27.73 63.4q2.85 13.47 4.04 29.19c4.25 56.02-5.24 112.04-20.79 166.22-12.49 43.52-28.18 86.49-45.49 127.76q-25.46 60.66-58.68 130.84-20.37 43.03-71.71 149.53c-6.01 12.48-11.86 25.13-18.23 37.34M370.53 311.84l.18 35.76q-62.37.39-125.4 3.53a.622.621-1.457 0 0-.59.62v44.39a.9.9-.315 0 0 .91.9l125.02-1.64-.12 36.18-124.34 2.61a.461.46 88.172 0 0-.45.48l1.88 42.31a.923.922 89.333 0 0 .9.88q58.68 1.55 121.21 1.89.95 0 .95.39l-.05 35.56-117.72-1.36a.799.798-3.709 0 0-.8.91l5.92 41.22a.617.612 87.686 0 0 .57.53q56.02 4.08 112.07 5.58l-.06 24.4q-39.48 1.7-78.83 3.91-11.31.64-22.45 2.01-1.51-.42-2.52-.13a.541.539-15.873 0 0-.37.66L277.49 634a1.575 1.566-.591 0 0 1.15 1.12q10.66 2.57 23.37 4.33 32.3 4.46 66.49 5.78 1.43.05 2.16.43l-.14 17.66c-26.47 1.5-52.83 4.31-79.18 7.02a.5.5-81.101 0 0-.3.12l-.51.4q-.57-.14-.87.05-.33.2-.13.76 7.05 19.86 14.8 40.57a1.339 1.315 87.076 0 0 .87.8q11.28 3.26 22.68 5.73 7.38 1.59 21.34 3.44 10.79 1.43 21.41 2.88l-.05 15.54q-13.07 2.23-26.09 3.85-7.59.95-11.89 2.1-5.84 1.56-11.47 3.84-.78.31-.88 1.03l16.03 38.68a1.879 1.869 1.319 0 0 .96 1q15.89 7.35 32.11 10.58 1.11.22 1.28.49l-.12 22.45q-5.54.73-10.93 1.69c-2.98.53-6.24 1.68-9.69 2.54q-.47.12-.41.62-.67.38-.42.94 8.91 20.44 17.12 40.44a2.427 2.418-88.728 0 0 1.22 1.28q2.71 1.25 3.18 2.06l.01 21.29-16.63.22c-3.62-7.25-7.58-14.73-10.69-21.8-2.44-5.58-5.61-11.5-7.92-16.32q-9.51-19.86-65.21-135.13c-3.75-7.76-7.04-15.45-10.88-23.49q-17.92-37.49-37.03-80.69-16.96-38.33-33.21-81.05-14.68-38.62-26.2-77.83-9.71-33.06-15.6-63.08-8.68-44.31-8.22-88.81.29-27.52 5.66-53.9c8.06-39.57 30.01-81.28 73.6-88.59 25.02-4.19 50.98 1.64 73.82 12.12 24.92 11.44 48.34 28.66 64.93 50.58 7.47 9.87 12.92 22.36 13.53 35.11a.73.73 88.869 0 1-.73.76q-48.8.15-94.81 2.44-15.06.75-30.5 2.13a.422.412 87.795 0 0-.38.42v45.55a.451.45-1.219 0 0 .47.45q45.95-1.69 94.16-2.61 16.05-.3 31.78-.15"></path><path fill="#c79423" fill-rule="evenodd" d="m417.25 311.4.08 35.75-46.62.45-.18-35.76zM656.76 311.69l-.11 35.92-46.36-.4.05-35.79z"></path><path fill="#39a184" fill-rule="evenodd" d="m610.34 311.42-.05 35.79-192.96-.06-.08-35.75z"></path><path fill="#dca82f" fill-rule="evenodd" d="m610.29 347.21 46.36.4q62.53.39 125.21 3.52a.791.782-88.11 0 1 .74.8l-.65 44.35a.75.75-45 0 1-.76.74l-124.63-1.65-46.23.05-193.11.31-46.57-.33-125.02 1.64a.9.9-.315 0 1-.91-.9v-44.39a.622.621-1.457 0 1 .59-.62q63.03-3.14 125.4-3.53l46.62-.45z"></path><path fill="#c79423" fill-rule="evenodd" d="m417.22 395.73-.02 36.14-46.67-.29.12-36.18zM656.56 395.37l.19 36.5-46.43-.02.01-36.43z"></path><path fill="#39a184" fill-rule="evenodd" d="m610.33 395.42-.01 36.43-193.12.02.02-36.14z"></path><path fill="#dca82f" fill-rule="evenodd" d="m417.2 431.87 193.12-.02 46.43.02q61.91.32 123.75 2.31a.5.5 58.338 0 1 .48.52l-2.12 42.3a.903.893.675 0 1-.88.85l-121.32 1.95-46.31.32-193.22.04-46.45-.02q0-.39-.95-.39-62.53-.34-121.21-1.89a.923.922 89.333 0 1-.9-.88l-1.88-42.31a.461.46 88.172 0 1 .45-.48l124.34-2.61z"></path><path fill="#c79423" fill-rule="evenodd" d="m417.13 480.16-.03 35.63-46.47-.09.05-35.56zM656.66 479.8l-.05 35.99-46.26-.02v-35.65z"></path><path fill="#39a184" fill-rule="evenodd" d="M610.35 480.12v35.65l-193.25.02.03-35.63z"></path><path fill="#dca82f" fill-rule="evenodd" d="m370.63 515.7 46.47.09 193.25-.02 46.26.02 117.38-1.46a.749.741-86.029 0 1 .74.86l-6.01 41.05a.589.581 1.839 0 1-.53.49q-30.98 2.78-63.91 3.98c-6.81.25-12.56.84-19.11.86q-2.68 0-14.32.58-7.29.37-14.31.53l-46.15.81q-3.53-.01-7.13.05-89.08 1.45-178.14-.01-.09 0-3.73.06-2.21.04-4.29-.27l-46.43-.74q-56.05-1.5-112.07-5.58a.617.612 87.686 0 1-.57-.53l-5.92-41.22a.799.798-3.709 0 1 .8-.91z"></path><path fill="#c79423" fill-rule="evenodd" d="m417.1 563.32.03 22.3.03 11.5a.871.861.326 0 1-.89.87l-44.74-.65a.91.9-89.682 0 1-.89-.91l-.03-9.45.06-24.4zM656.54 562.68l.1 23.08-.14 4.79-.14 6.78-45.22.73a.87.86 89.674 0 1-.87-.87l.06-11.52.06-22.18z"></path><path fill="#39a184" fill-rule="evenodd" d="m610.39 563.49-.06 22.18q-31.11-.52-62.08-.68-38.75-.19-77.5.09-22.88.16-45.75.48-3.87.05-7.87.06l-.03-22.3q2.08.31 4.29.27 3.64-.06 3.73-.06 89.06 1.46 178.14.01 3.6-.06 7.13-.05"></path><path fill="#744e3c" fill-rule="evenodd" d="m610.33 585.67-.06 11.52a.87.86 89.674 0 0 .87.87l45.22-.73q-.47.99 1.94 1.48-42.17 1.49-53.05 1.75-13.31.32-48.89.6 3.96-1.33 8.48-.87a2.057 1.956-51.422 0 0 .94-.13q1.46-.59 3.47-.55 14.37.3 28.87-2.5 1.8-.35 3.42-1.38a1.297 1.292 51.699 0 0 .23-1.99c-1.31-1.35-6.21-2.3-9.1-2.59-24.25-2.38-47.32-3.18-71.41-3.24-21.1-.06-42.67 1.09-63 2.16q-15.27.8-27.92 2.78-2.55.4-4.4.92a.466.463-43.879 0 0-.02.89q6.95 2.22 14.58 2.63 17.73.96 35.22 1.95 10.46.59 14.61.63 9.41.08 14.62.24a1.233 1.232 68.666 0 1 .82.36q.71.72 1.36.71 17.45-.11 34.91.21-36.9.12-73.79.12-20.03 0-88-2.08-43.88-1.34-87.66-4.57c-6.52-.48-15.48-1.59-23.26-1.96q11.14-1.37 22.45-2.01 39.35-2.21 78.83-3.91l.03 9.45a.91.9-89.682 0 0 .89.91l44.74.65a.871.861.326 0 0 .89-.87l-.03-11.5q4-.01 7.87-.06 22.87-.32 45.75-.48 38.75-.28 77.5-.09 30.97.16 62.08.68M756.8 592.73q-2.13.39-4.3.55c-19.42 1.39-37.74 2.97-58.29 3.82l-1.86.02a.026.026 34.257 0 1-.01-.05l8.26-2.24a.347.345 46.959 0 0 .02-.66q-7.64-2.64-15.75-3.32-12.05-1-22.65-1.45-2.07-.08-5.72 1.15l.14-4.79q.45 1.12 1.18 1.15 49.01 1.83 97.93 5.21.85.06 1.05.61"></path><path fill="#40220b" fill-rule="evenodd" d="m556.36 601.16-14.32.23q-17.46-.32-34.91-.21-.65.01-1.36-.71a1.233 1.232 68.666 0 0-.82-.36q-5.21-.16-14.62-.24-4.15-.04-14.61-.63-17.49-.99-35.22-1.95-7.63-.41-14.58-2.63a.466.463-43.879 0 1 .02-.89q1.85-.52 4.4-.92 12.65-1.98 27.92-2.78c20.33-1.07 41.9-2.22 63-2.16 24.09.06 47.16.86 71.41 3.24 2.89.29 7.79 1.24 9.1 2.59a1.297 1.292 51.699 0 1-.23 1.99q-1.62 1.03-3.42 1.38-14.5 2.8-28.87 2.5-2.01-.04-3.47.55a2.057 1.956-51.422 0 1-.94.13q-4.52-.46-8.48.87M694.21 597.1l-35.91 1.71q-2.41-.49-1.94-1.48l.14-6.78q3.65-1.23 5.72-1.15 10.6.45 22.65 1.45 8.11.68 15.75 3.32a.347.345 46.959 0 1-.02.66l-8.26 2.24a.026.026 34.257 0 0 .01.05z"></path><path fill="#dca82f" fill-rule="evenodd" d="m656.56 645.25-46.24 2.43q-75.69 2.09-141.32 1.15-11.83-.16-51.8-1.32l-46.54-1.85q-.73-.38-2.16-.43-34.19-1.32-66.49-5.78-12.71-1.76-23.37-4.33a1.575 1.566-.591 0 1-1.15-1.12l-11.05-40.57a.541.539-15.873 0 1 .37-.66q1.01-.29 2.52.13c7.78.37 16.74 1.48 23.26 1.96q43.78 3.23 87.66 4.57 67.97 2.08 88 2.08 36.89 0 73.79-.12l14.32-.23q35.58-.28 48.89-.6 10.88-.26 53.05-1.75l35.91-1.71c20.55-.85 38.87-2.43 58.29-3.82q2.17-.16 4.3-.55 1.63-.35 3.27-.07a.461.46-76.916 0 1 .36.58l-11.02 40.32a2.196 2.184-88.412 0 1-1.65 1.57q-11.72 2.55-27.53 4.55-31.51 3.99-63.67 5.57"></path><path fill="#c79423" fill-rule="evenodd" d="m656.56 645.25-.03 17.3-.08 4.39-.07 6.55-.19 4.87a.793.793 36.677 0 1-.76.76l-44.14 1.97a1.111 1.103 89.022 0 1-1.15-1.12l.21-18.84-.03-13.45zM417.2 647.51l.01 14.19-.08 18.56a.801.8 1.397 0 1-.83.79l-44.68-1.71a1.252 1.251 1.194 0 1-1.2-1.25l.1-14.77.14-17.66z"></path><path fill="#39a184" fill-rule="evenodd" d="m610.32 647.68.03 13.45q-3.75-.05-7.35-.15-92.94-2.38-185.79.72l-.01-14.19q39.97 1.16 51.8 1.32 65.63.94 141.32-1.15"></path><path fill="#744e3c" fill-rule="evenodd" d="m610.35 661.13-.21 18.84a1.111 1.103 89.022 0 0 1.15 1.12l44.14-1.97a.793.793 3.436 0 0 .76-.76l.19-4.87.33 5.15a.543.541-4.087 0 0 .59.51q21.45-1.75 36.33-4.64 2.09-.41 3.48-1.05a.792.787-45.179 0 0 0-1.44q-.8-.36-2.64-.69-18.75-3.34-38.02-4.39l.08-4.39q36.38 1.67 77.97 7.54 1.63.23 2.48.63c-22.46 3.84-42.98 6.67-64.3 8.06q-3.28.22-6.87.9-2.07.39-6.92.3a7.854 7.784 39.547 0 0-1.76.16q-2.98.6-9.88 1.04-25 1.59-38.25 2.14c-5.59.23-10.44.76-15.33.84-14.78.24-28.43 1.02-41.22 1.16q-62.98.65-78.83.07-36.13-1.32-36.62-1.33c-11.85-.28-20.92-.91-31.99-1.41q-22.03-.99-30.26-1.54-14.43-.97-44.22-4.25-12.6-1.38-38.15-5.5-.95-.16-1.85-.5l.51-.4a.5.5-31.372 0 1 .3-.12c26.35-2.71 52.71-5.52 79.18-7.02l-.1 14.77a1.252 1.251 1.194 0 0 1.2 1.25l44.68 1.71a.801.8 1.397 0 0 .83-.79l.08-18.56q92.85-3.1 185.79-.72 3.6.1 7.35.15m-183.06 12.81a.775.773-33.421 0 0-.24 1.16q.77.98 1.84 1.24c5.24 1.25 8.37 2.3 12.88 2.79q10.35 1.14 26.16 2.58c6.19.57 11.85.54 20.3.91q22.03.97 41.01.83c9.89-.07 23.83-1 30.98-1.24 12.09-.41 25.11-1.85 34.98-3.37 2.06-.31 4.23-1.06 5.53-2.44 5.06-5.38-14.65-7.94-16.73-8.14q-25.2-2.48-53.76-2.67c-16.15-.12-29.31-.25-43.9.96-1.86.16-6.46.09-8.34.2q-7.64.46-32.3 2.73c-7.43.68-12.92 1.46-18.41 4.46"></path><path fill="#40220b" fill-rule="evenodd" d="M427.29 673.94c5.49-3 10.98-3.78 18.41-4.46q24.66-2.27 32.3-2.73c1.88-.11 6.48-.04 8.34-.2 14.59-1.21 27.75-1.08 43.9-.96q28.56.19 53.76 2.67c2.08.2 21.79 2.76 16.73 8.14-1.3 1.38-3.47 2.13-5.53 2.44-9.87 1.52-22.89 2.96-34.98 3.37-7.15.24-21.09 1.17-30.98 1.24q-18.98.14-41.01-.83c-8.45-.37-14.11-.34-20.3-.91q-15.81-1.44-26.16-2.58c-4.51-.49-7.64-1.54-12.88-2.79q-1.07-.26-1.84-1.24a.775.773-33.421 0 1 .24-1.16M656.38 673.49l.07-6.55q19.27 1.05 38.02 4.39 1.84.33 2.64.69a.792.787-45.179 0 1 0 1.44q-1.39.64-3.48 1.05-14.88 2.89-36.33 4.64a.543.541-4.087 0 1-.59-.51z"></path><path fill="#dca82f" fill-rule="evenodd" d="M290.53 670.86q.9.34 1.85.5 25.55 4.12 38.15 5.5 29.79 3.28 44.22 4.25 8.23.55 30.26 1.54c11.07.5 20.14 1.13 31.99 1.41q.49.01 36.62 1.33 15.85.58 78.83-.07c12.79-.14 26.44-.92 41.22-1.16 4.89-.08 9.74-.61 15.33-.84q13.25-.55 38.25-2.14 6.9-.44 9.88-1.04a7.854 7.784 39.547 0 1 1.76-.16q4.85.09 6.92-.3 3.59-.68 6.87-.9c21.32-1.39 41.84-4.22 64.3-8.06q-2.04 6.88-4.61 13.37-4.44 11.25-5.12 13.2-2.78 7.94-5.52 14.22c-.66 1.52-1.86 1.64-3.33 2.05q-11.94 3.33-20.65 4.95-19.11 3.56-41.56 6.43l-46.14 3.89q-96.29 5.07-192.62-.19l-46.8-3.55q-10.62-1.45-21.41-2.88-13.96-1.85-21.34-3.44-11.4-2.47-22.68-5.73a1.339 1.315 87.076 0 1-.87-.8q-7.75-20.71-14.8-40.57-.2-.56.13-.76.3-.19.87-.05"></path><path fill="#c79423" fill-rule="evenodd" d="m417.43 728.64.02 10.4-.27 22.35a.522.511 1.592 0 1-.55.51c-2.49-.11-5.09.2-7.52.07q-18.17-.96-37.38-2.98a1.487 1.484-86.811 0 1-1.33-1.49l.18-16.87.05-15.54zM656.19 724.94l.13 15.8-.12 6.24-.03 9.72q.06.88-.14 1.47a.835.827-83.782 0 1-.69.56q-21.86 2.61-44.63 3.4a.6.6-1.365 0 1-.63-.6l-.04-23.27.01-9.43z" data-source="https://football-logos.cc"></path><path fill="#39a184" fill-rule="evenodd" d="m610.05 728.83-.01 9.43q-59.78-2.71-107.04-2.19-34.15.38-85.55 2.97l-.02-10.4q96.33 5.26 192.62.19"></path><path fill="#744e3c" fill-rule="evenodd" d="m610.04 738.26.04 23.27a.6.6-1.365 0 0 .63.6q22.77-.79 44.63-3.4a.835.827-83.782 0 0 .69-.56q.2-.59.14-1.47.03.87.46 1.5a.845.841-21.776 0 0 .82.35q7.43-1.16 13.31-4.63a1.286 1.284-42.917 0 0 .08-2.16q-3.11-2.16-7.27-3.05-3.55-.76-7.37-1.73l.12-6.24q14.81 1.43 29.21 3.84c6.54 1.1 12.4 2.95 18.48 5.15q.92.33 1.81 1.42c-5.99 1.1-12.34 3.12-17.49 3.88-5.35.78-12.14 1.76-19.01 3.11q-4.74.92-10.03 1.09a4.485 4.361 35.496 0 0-.98.15q-4.88 1.29-11.82 2.03c-8.76.92-16.78 2-23.25 2.46q-43.73 3.09-69.24 3.65c-39.38.87-73.68.6-108.25-1.02q-21.63-1.02-40.23-2.43c-7.15-.54-14.27-1.56-22.76-2.27q-10.58-.88-28.95-4.14c-5.98-1.06-10.72-1.52-15.09-2.15q-2.94-.43-9.23-2.05-4.5-1.15-9.24-2.01.1-.72.88-1.03 5.63-2.28 11.47-3.84 4.3-1.15 11.89-2.1 13.02-1.62 26.09-3.85l-.18 16.87a1.487 1.484-86.811 0 0 1.33 1.49q19.21 2.02 37.38 2.98c2.43.13 5.03-.18 7.52-.07a.522.511 1.592 0 0 .55-.51l.27-22.35q51.4-2.59 85.55-2.97 47.26-.52 107.04 2.19m-9.1 15.18c-3.98-3.5-8.51-4.83-14.23-6.09q-4.23-.93-6.82-1.18-36.91-3.6-66.14-3.14-28.42.45-56.74 3.24-13.77 1.36-25.32 5.15-2.31.76-3.5 2.25a1.461 1.454 37.474 0 0 .28 2.08q1.99 1.46 5.02 2.28 7.33 1.97 15.26 3 21.87 2.85 39.52 3.48c13.2.47 24.51 1.43 36.32 1.06q18.54-.57 35.91-1.63 14.91-.91 27.27-3.2 1.51-.28 9.72-3.04a4.176 3.881-69.718 0 0 .91-.46l2.41-1.65a1.364 1.363 48.486 0 0 .13-2.15"></path><path fill="#40220b" fill-rule="evenodd" d="M600.94 753.44a1.364 1.363 48.486 0 1-.13 2.15l-2.41 1.65a4.176 3.881-69.718 0 1-.91.46q-8.21 2.76-9.72 3.04-12.36 2.29-27.27 3.2-17.37 1.06-35.91 1.63c-11.81.37-23.12-.59-36.32-1.06q-17.65-.63-39.52-3.48-7.93-1.03-15.26-3-3.03-.82-5.02-2.28a1.461 1.454 37.474 0 1-.28-2.08q1.19-1.49 3.5-2.25 11.55-3.79 25.32-5.15 28.32-2.79 56.74-3.24 29.23-.46 66.14 3.14 2.59.25 6.82 1.18c5.72 1.26 10.25 2.59 14.23 6.09M656.17 756.7l.03-9.72q3.82.97 7.37 1.73 4.16.89 7.27 3.05a1.286 1.284-42.917 0 1-.08 2.16q-5.88 3.47-13.31 4.63a.845.841-21.776 0 1-.82-.35q-.43-.63-.46-1.5"></path><path fill="#dca82f" fill-rule="evenodd" d="m705.82 751.15-16.03 38.52a3.155 3.098-1.77 0 1-1.57 1.64q-15.68 7.4-32.33 10.76-11.73 2.15-18.43 3.15-12.42 1.86-27.47 3.23-10.44.7-20.83 1.52-12.63 1-20.84 1.27-37.71 1.24-59.31 1.1-11.66-.07-43.09-.88-10.36-.26-24.32-1.26-12.29-.89-24.31-1.65-3.3-.53-15.9-1.63-6.54-.57-30.76-4.72-.17-.27-1.28-.49-16.22-3.23-32.11-10.58a1.879 1.869 1.319 0 1-.96-1l-16.03-38.68q4.74.86 9.24 2.01 6.29 1.62 9.23 2.05c4.37.63 9.11 1.09 15.09 2.15q18.37 3.26 28.95 4.14c8.49.71 15.61 1.73 22.76 2.27q18.6 1.41 40.23 2.43c34.57 1.62 68.87 1.89 108.25 1.02q25.51-.56 69.24-3.65c6.47-.46 14.49-1.54 23.25-2.46q6.94-.74 11.82-2.03a4.485 4.361 35.496 0 1 .98-.15q5.29-.17 10.03-1.09c6.87-1.35 13.66-2.33 19.01-3.11 5.15-.76 11.5-2.78 17.49-3.88"></path><path fill="#c79423" fill-rule="evenodd" d="m417.29 808.55.15 13.16-.04 17.7a.773.772 1.748 0 1-.82.77q-11.96-.65-24.01-2.25-8.07-1.07-19.09-2.41-.98-.12-1.92-.18l-.72-.13-.33-10.56.12-22.45q24.22 4.15 30.76 4.72 12.6 1.1 15.9 1.63M655.89 802.07l.17 22.54-.22 8.73a.977.972-4.812 0 1-.79.93q-22.08 4.25-44.11 5.74a.954.952-2.27 0 1-1.02-.94l-.03-17.81.1-12.81q15.05-1.37 27.47-3.23 6.7-1 18.43-3.15"></path><path fill="#39a184" fill-rule="evenodd" d="m609.99 808.45-.1 12.81q-.78.2-1.14.18c-5.82-.27-13.18-.3-19.3-.69-28.07-1.76-52.03-1.78-83.45-1.77q-27.62 0-88.56 2.73l-.15-13.16q12.02.76 24.31 1.65 13.96 1 24.32 1.26 31.43.81 43.09.88 21.6.14 59.31-1.1 8.21-.27 20.84-1.27 10.39-.82 20.83-1.52"></path><path fill="#744e3c" fill-rule="evenodd" d="m609.89 821.26.03 17.81a.954.952-2.27 0 0 1.02.94q22.03-1.49 44.11-5.74a.977.972-4.812 0 0 .79-.93l.22-8.73q8.67.96 11.32 1.49 3.79.76 9.74 3.36l-7.68 2.64a.375.052-7.973 0 1-.07.02q-9.28 2.05-16.19 3.75-8.65 2.12-22.3 3.78c-8.17 1-13.86 2.05-22.57 2.72q-30.38 2.33-41.06 2.92-36.98 2.05-75.81 1.19-36.25-.8-78.69-4.64-5.05-.46-24.97-2.99-3.6-.46-16.22-3.51.94.06 1.92.18 11.02 1.34 19.09 2.41 12.05 1.6 24.01 2.25a.773.772 1.748 0 0 .82-.77l.04-17.7q60.94-2.73 88.56-2.73c31.42-.01 55.38.01 83.45 1.77 6.12.39 13.48.42 19.3.69q.36.02 1.14-.18m-181.26 11.97a2.018 2.016-75.305 0 0 1.15 1.97q2.04.95 4.09 1.38c9.62 1.99 22.68 3.82 35.95 4.73q4.33.29 20.94 1.29 28.49 1.71 54.34-.01c7.73-.52 16.45-.35 24.69-1.46q4.94-.66 12.95-1.56 10.02-1.11 12.93-1.91 2.65-.73 4.17-2.48c3.66-4.21-9.77-6.35-11.41-6.55q-2.68-.34-12.27-1.8-3.87-.58-12.33-1.01-23.2-1.16-26.58-1.24-40.92-.92-79.5 2.72-13.37 1.26-23 3.17-3.44.69-5.64 2.38-.48.37-.48.38M370.51 824.65l.33 10.56q-10.87-1.66-21.36-5.71-.06-.5.41-.62c3.45-.86 6.71-2.01 9.69-2.54q5.39-.96 10.93-1.69"></path><path fill="#40220b" fill-rule="evenodd" d="M428.63 833.23q0-.01.48-.38 2.2-1.69 5.64-2.38 9.63-1.91 23-3.17 38.58-3.64 79.5-2.72 3.38.08 26.58 1.24 8.46.43 12.33 1.01 9.59 1.46 12.27 1.8c1.64.2 15.07 2.34 11.41 6.55q-1.52 1.75-4.17 2.48-2.91.8-12.93 1.91-8.01.9-12.95 1.56c-8.24 1.11-16.96.94-24.69 1.46q-25.85 1.72-54.34.01-16.61-1-20.94-1.29c-13.27-.91-26.33-2.74-35.95-4.73q-2.05-.43-4.09-1.38a2.018 2.016-75.305 0 1-1.15-1.97"></path><path fill="#dca82f" fill-rule="evenodd" d="M349.48 829.5q10.49 4.05 21.36 5.71l.72.13q12.62 3.05 16.22 3.51 19.92 2.53 24.97 2.99 42.44 3.84 78.69 4.64 38.83.86 75.81-1.19 10.68-.59 41.06-2.92c8.71-.67 14.4-1.72 22.57-2.72q13.65-1.66 22.3-3.78 6.91-1.7 16.19-3.75a.375.052-7.973 0 0 .07-.02l7.68-2.64-17.09 40.77a3.366 3.333-89.885 0 1-1.79 1.8l-2.37 1.01q-8.24 3.65-16.43 5.94c-7.68 2.14-15.44 3.93-23.34 5.07q-3.48.51-6.37 1.24c-43.55 5.06-91.74 5.97-137.73 4.09q-27.26-1.12-54.45-4.31-17.91-1.61-35.11-6.84c-3.31-1.01-7.78-2.93-11.86-4.01q-.47-.81-3.18-2.06a2.427 2.418-88.728 0 1-1.22-1.28q-8.21-20-17.12-40.44-.25-.56.42-.94"></path><path fill="#c79423" fill-rule="evenodd" d="m655.87 873.04.08 22.61-.11 7.14-.12.74q-.22 2.86-.11 5.71.09 2.24-2.05 2.63-10.8 1.98-20.89 3.27c-6.81.86-14.22 1.05-21.72 2.01a.814.804 85.938 0 1-.91-.8l-.1-20.63-.21-10.43q2.89-.73 6.37-1.24c7.9-1.14 15.66-2.93 23.34-5.07q8.19-2.29 16.43-5.94M417.55 885.07l-.1 10.53-.26 17.37a.65.65-.462 0 1-.63.64q-8 .24-11.81-.05-16.33-1.26-32.62-2.21a1.625 1.612 1.697 0 1-1.53-1.61l-.01-14.23-.01-21.29c4.08 1.08 8.55 3 11.86 4.01q17.2 5.23 35.11 6.84"></path><path fill="#39a184" fill-rule="evenodd" d="m609.73 885.29.21 10.43-192.49-.12.1-10.53q27.19 3.19 54.45 4.31c45.99 1.88 94.18.97 137.73-4.09"></path><path fill="#744e3c" fill-rule="evenodd" d="m609.94 895.72.1 20.63a.814.804 85.938 0 0 .91.8c7.5-.96 14.91-1.15 21.72-2.01q10.09-1.29 20.89-3.27 2.14-.39 2.05-2.63-.11-2.85.11-5.71l.14 7.56a.381.379 81.721 0 0 .48.36q3.4-.91 5.61-3.06a2.295 2.292-42.852 0 0 .12-3.15q-2.75-3.11-6.23-2.45l.11-7.14 15.41.31-3.66 7.66a.605.604-78.091 0 0 .56.86q16.68-.26 27.75-.24 2.77 0 5.29-.49a.861.857-89.455 0 0 .67-.66q.57-2.56 1.64-3.92 2.4 2.06 3.11 3.71l-3.99 2.46a4.837 4.616-68.142 0 1-1.12.51c-8.13 2.57-13.57 4.78-21.39 6.4q-18.38 3.83-25.04 4.87-15.11 2.36-36.39 5.14-10.74 1.4-25.13 2.55-24.27 1.92-25.16 1.98-56.12 4.09-116.7-.42-24.06-1.79-54.77-5.36-14.75-1.72-24.04-3.6-.67-.13-6.73-1.05c-8.79-1.33-18.7-3.89-23.73-4.77-6.32-1.1-14.75-3.97-19.68-5.92q-1.94-.77-4.39-3.16.43-2.23 3.73-3.37l1.37 3.29a2.568 2.547-10.678 0 0 2.32 1.57l30.98.45a.698.698 77.901 0 0 .64-.99l-3.54-7.73 16.63-.22.01 14.23a1.625 1.612 1.697 0 0 1.53 1.61q16.29.95 32.62 2.21 3.81.29 11.81.05a.65.65-.462 0 0 .63-.64l.26-17.37zm-179.72 17.84c1.5 1.94 4.76 2.75 7.26 3.47q3.42.99 16.15 3.13 7.4 1.25 16.31 2 20.61 1.75 25.56 2.08 25.93 1.75 64.39-.67 4.61-.29 10.7-1.11c9.53-1.27 15.61-2.18 23.79-4.33q2.99-.78 4.9-3.03a2.404 2.395 43.503 0 0-.09-3.21q-2.83-3.01-7.86-4.21c-4.87-1.15-9.64-2.14-14.14-2.66Q518.78 898.34 460 904q-12.47 1.2-23.93 4.34-3.12.85-5.56 2.82a1.729 1.726-38.158 0 0-.29 2.4"></path><path fill="#40220b" fill-rule="evenodd" d="M430.22 913.56a1.729 1.726-38.158 0 1 .29-2.4q2.44-1.97 5.56-2.82Q447.53 905.2 460 904q58.78-5.66 117.19 1.02c4.5.52 9.27 1.51 14.14 2.66q5.03 1.2 7.86 4.21a2.404 2.395 43.503 0 1 .09 3.21q-1.91 2.25-4.9 3.03c-8.18 2.15-14.26 3.06-23.79 4.33q-6.09.82-10.7 1.11-38.46 2.42-64.39.67-4.95-.33-25.56-2.08-8.91-.75-16.31-2-12.73-2.14-16.15-3.13c-2.5-.72-5.76-1.53-7.26-3.47M655.72 903.53l.12-.74q3.48-.66 6.23 2.45a2.295 2.292-42.852 0 1-.12 3.15q-2.21 2.15-5.61 3.06a.381.379 81.721 0 1-.48-.36z"></path><path fill="#dca82f" fill-rule="evenodd" d="m706.72 902.88-.1 43.87a2.744 2.727-20.566 0 1-.93 2.03c-5.59 4.87-13.89 7.88-20.65 10.02q-14.06 4.46-28.31 6.42a.957.954 85.944 0 0-.83.96l.14 19.93-.18 26.07a.659.65-7.534 0 1-.49.63q-13.41 3.42-25.62 3.6-8.8.14-19.66.21a.71.7.398 0 1-.71-.71l.22-31.04-.19-13.19a.562.561-2.428 0 0-.6-.55c-51.26 3.56-101.98 4.7-153.81 2.15q-18.44-.91-36.67-2.11a.701.693-87.672 0 0-.74.69l-.11 13.07-.08 30.87a.76.76.372 0 1-.77.76q-6.91-.17-13.75-.1c-11.01.12-21.39-1.26-31.25-3.61a1.208 1.201 6.695 0 1-.93-1.17l-.03-25.34-.05-20.2a.747.738 4.566 0 0-.63-.73q-15.46-2.29-30.36-6.8-8.15-2.46-14.48-5.74-4.4-2.28-6.23-4.28-1.06-1.15-1-3.35.56-21.11.54-42.73 2.45 2.39 4.39 3.16c4.93 1.95 13.36 4.82 19.68 5.92 5.03.88 14.94 3.44 23.73 4.77q6.06.92 6.73 1.05 9.29 1.88 24.04 3.6 30.71 3.57 54.77 5.36 60.58 4.51 116.7.42.89-.06 25.16-1.98 14.39-1.15 25.13-2.55 21.28-2.78 36.39-5.14 6.66-1.04 25.04-4.87c7.82-1.62 13.26-3.83 21.39-6.4a4.837 4.616-68.142 0 0 1.12-.51z"></path><path fill="#39a184" fill-rule="evenodd" d="M609.6 984.87q-5.73.27-17.6-.07-4.89-.14-41.93-.74c-17.56-.28-32.85.04-51.27-.11-21.89-.18-48.68.42-69.18 1.07q-6 .19-12.14-.09l.11-13.07a.701.693-87.672 0 1 .74-.69q18.23 1.2 36.67 2.11c51.83 2.55 102.55 1.41 153.81-2.15a.562.561-2.428 0 1 .6.55z"></path><path fill="#744e3c" fill-rule="evenodd" d="m609.6 984.87-.22 31.04a.71.7.398 0 0 .71.71q10.86-.07 19.66-.21 12.21-.18 25.62-3.6a.659.65-7.534 0 0 .49-.63l.18-26.07q.66.62 1.2.64 10.26.37 20.85 1.54c17.68 1.96 36.63 4.9 52.91 9.94 3.29 1.02 10.95 3.84 12.79 7.31-1.01 4.81-5.97 8.12-10.01 10.25q-15.14 7.96-30.09 11.68-28.12 6.99-60.51 10.63-56.17 6.31-116.42 6.44-47.69.1-83.76-1.51-34.53-1.54-76.99-7.06-21.08-2.74-40.13-7.13-10.62-2.45-25.06-7.93c-6.02-2.28-14.36-6.16-18.36-10.62q-1.25-1.4-2.39-4.96 2.17-2.25 3.96-3.3c7.81-4.59 18.2-7 27.03-8.69q15.5-2.95 25.46-3.96c8.23-.84 16.69-1.85 25.05-2.31q4.52-.24 9.1-.73l.03 25.34a1.208 1.201 6.695 0 0 .93 1.17c9.86 2.35 20.24 3.73 31.25 3.61q6.84-.07 13.75.1a.76.76.372 0 0 .77-.76l.08-30.87q6.14.28 12.14.09c20.5-.65 47.29-1.25 69.18-1.07 18.42.15 33.71-.17 51.27.11q37.04.6 41.93.74 11.87.34 17.6.07"></path><path fill="#dca82f" fill-rule="evenodd" d="M280.07 1005.33q1.14 3.56 2.39 4.96c4 4.46 12.34 8.34 18.36 10.62q14.44 5.48 25.06 7.93 19.05 4.39 40.13 7.13 42.46 5.52 76.99 7.06 36.07 1.61 83.76 1.51 60.25-.13 116.42-6.44 32.39-3.64 60.51-10.63 14.95-3.72 30.09-11.68c4.04-2.13 9-5.44 10.01-10.25q.18.1.34.1a.268.247 69.183 0 1 .2.1q25.47 31.85 41.93 54.09 1.55 2.09 2.46 3.6a1.741 1.721-42.121 0 1-.11 1.96c-5.11 6.65-13.1 9.95-21.56 13.12q-7.91 2.96-18.59 5.65c-27.2 6.86-56.59 11.13-85.46 14.07q-46.17 4.7-101.25 6.08c-64.53 1.61-129.36.44-193.97-5.68q-45.59-4.32-84.24-12.72-12.84-2.79-22.96-6.29-9.8-3.39-15.4-6.47c-3.38-1.86-8.04-4.77-9.64-8.11a1.802 1.796-39.86 0 1 .17-1.86q21.65-29.67 44.36-57.85"></path><path fill="#fff" fill-rule="evenodd" d="M741.1 1273.98a.353.351 65.141 0 0-.62-.23c-13.12 15.75-36.05 18.37-53.7 9.47-18.42-9.28-27.07-29.21-26.72-49.65q.26-15.19 8.69-28.4c10.57-16.59 28.55-24.5 47.97-21.38q12.62 2.03 21.68 11a.29.288-67.961 0 0 .49-.21v-47.03a.62.62 29.815 0 1 .62-.62h27.53a.74.74-53.159 0 1 .74.74v110.11a1.16 1.16 11.234 0 0 1.16 1.16h5.49a.79.79-45.006 0 1 .79.79v26.45a.39.38 90 0 1-.38.39h-32.62a1.13 1.12 90 0 1-1.12-1.13zm-25.207-64.656a26.45 25.57-85.7 0 0-27.481 24.459 26.45 25.57-85.7 0 0 23.515 28.293 26.45 25.57-85.7 0 0 27.481-24.459 26.45 25.57-85.7 0 0-23.515-28.293M251.73 1194.94a.23.229-12.218 0 1-.2.31l-31.08 2.55a.775.762-18.923 0 1-.71-.34c-4.52-6.56-9.89-11.23-17.59-13.6-15.09-4.66-31.58-.29-41.18 12.48-12.66 16.85-10.28 40.78 5.09 54.84 7.95 7.27 20.85 9.66 31.61 7.66q13.25-2.45 21.59-13.11a1.638 1.613 19.216 0 1 1.33-.63l30.84.45a.402.396 8.767 0 1 .38.51c-6.01 21-23.54 35.17-44.49 40.05q-27.54 6.4-50.86-5.88c-34.83-18.34-44.86-66.21-22.08-98.34 12.67-17.86 31.77-27.9 53.87-28.62q24.62-.8 44.14 13.88c9.23 6.93 15.12 16.81 19.34 27.79M313.5 1183.047c23.319-.27 43.669 12.488 51.2 34.837 5.72 16.976 2.79 37.396-8.683 51.317-10.347 12.551-25.272 18.961-41.679 19.151-23.319.261-43.669-12.497-51.199-34.846-5.721-16.976-2.791-37.396 8.682-51.318 10.347-12.55 25.272-18.961 41.679-19.141m-2.144 26.414a26.33 25.48-95.5 0 0-22.839 28.651 26.33 25.48-95.5 0 0 27.887 23.767 26.33 25.48-95.5 0 0 22.839-28.651 26.33 25.48-95.5 0 0-27.887-23.767M408.7 1185.4v11.23a.504.503 63.949 0 0 .9.31c4.82-6.19 9.88-9.61 17.42-11.87q11.79-3.52 24.45-.75c20.16 4.42 33.61 21.21 36.46 41.46q2.61 18.41-4.85 34.75c-4.11 9-12.37 17.82-21.25 22.34-16.42 8.38-38.08 7.42-51.14-6.55a.728.725 23.598 0 0-1.26.49v46.01a.51.51-56.248 0 1-.51.51h-27.25a.49.48 90 0 1-.48-.49c-.08-38.65-.3-52.47.11-78.93q.22-14.42-.41-30.34a1.242 1.235-4.306 0 0-1.38-1.18q-1.72.19-2.6-.13a.855.834-80.427 0 1-.54-.78l-.47-25.42a1.2 1.19 89.526 0 1 1.19-1.22h31.04a.57.56 0 0 1 .57.56m26.064 23.77a26.44 25.78-90.1 0 0-25.734 26.485 26.44 25.78-90.1 0 0 25.826 26.395 26.44 25.78-90.1 0 0 25.734-26.485 26.44 25.78-90.1 0 0-25.826-26.395M832.863 1183.35c23.181-1.474 44.087 10.156 52.742 31.993 6.574 16.587 4.724 37.051-5.963 51.495-9.637 13.023-24.148 20.177-40.459 21.211-23.18 1.484-44.086-10.146-52.741-31.983-6.574-16.587-4.724-37.051 5.963-51.495 9.637-13.023 24.148-20.177 40.458-21.221m2.275 25.962a26.37 25.23-91.7 0 0-24.437 27.106 26.37 25.23-91.7 0 0 26.001 25.61 26.37 25.23-91.7 0 0 24.437-27.106 26.37 25.23-91.7 0 0-26.001-25.61M603.19 1286.59h-30.56a.66.65 90 0 1-.65-.66v-11.55a.624.621-22.322 0 0-1.06-.44q-4.76 4.73-11.56 8.65c-12.18 7.02-29.17 7.11-41.71 2.54q-12.74-4.65-17.12-17.35c-3.77-10.94-1.69-24.62 7.14-32.49q6.92-6.17 16.33-8 14.05-2.74 27.55-3.14c4.4-.13 8.24-.99 12.65-2.23a2.245 2.243 83.272 0 0 1.64-2.08c.37-10.6-11-12.09-19.39-11.83-7.08.22-13.58 4-15.15 11a.901.89-83.489 0 1-.87.7h-27.62a.462.452-88.209 0 1-.45-.49q.77-12.74 8.86-22.46 5.08-6.09 14.27-9.5 17.78-6.57 37.24-2.66 5.87 1.19 10.11 3.08 15.02 6.73 19.92 21.06 2.12 6.21 2.14 20.35.02 13.87.09 28.73a1.35 1.35 89.786 0 0 1.35 1.34h6.81a.68.68.033 0 1 .68.68v26.11a.64.64 29.82 0 1-.64.64m-36.81-44.79q-12.08 1.38-23.54 2.98c-3.44.49-11.5 3.16-13.15 6.94-2.83 6.51 2.62 10.5 8.57 11q17.48 1.46 26.04-12.23c1.54-2.47 2.4-5.39 2.62-8.16a.492.485 89.076 0 0-.54-.53"></path><path fill="#39a184" fill-rule="evenodd" d="M311.356 1209.461a26.33 25.48-95.5 0 1 27.887 23.767 26.33 25.48-95.5 0 1-22.839 28.651 26.33 25.48-95.5 0 1-27.887-23.767 26.33 25.48-95.5 0 1 22.839-28.651M434.764 1209.17a26.44 25.78-90.1 0 1 25.826 26.395 26.44 25.78-90.1 0 1-25.734 26.485 26.44 25.78-90.1 0 1-25.826-26.395 26.44 25.78-90.1 0 1 25.734-26.485M715.893 1209.324a26.45 25.57-85.7 0 1 23.515 28.293 26.45 25.57-85.7 0 1-27.481 24.459 26.45 25.57-85.7 0 1-23.515-28.293 26.45 25.57-85.7 0 1 27.481-24.459M835.138 1209.312a26.37 25.23-91.7 0 1 26.001 25.61 26.37 25.23-91.7 0 1-24.437 27.106 26.37 25.23-91.7 0 1-26.001-25.61 26.37 25.23-91.7 0 1 24.437-27.106M566.38 1241.8a.492.485 89.076 0 1 .54.53c-.22 2.77-1.08 5.69-2.62 8.16q-8.56 13.69-26.04 12.23c-5.95-.5-11.4-4.49-8.57-11 1.65-3.78 9.71-6.45 13.15-6.94q11.46-1.6 23.54-2.98"></path><path fill="#fff" fill-rule="evenodd" d="M494.13 1448.92a.32.316-26.145 0 0-.57-.19c-11.46 14.41-30.74 17.47-47.98 11.94q-9.18-2.94-15.43-8.82c-19.63-18.46-21.72-48.27-9.13-71.06 2.75-4.98 6.65-8.65 11.23-12.48q10.36-8.67 23.88-10.17 20.55-2.27 35.17 11.5a.427.425-68.185 0 0 .72-.31v-47.73a.71.7 0 0 1 .71-.7h26.78a.6.6 25.187 0 1 .6.6v110.43a1.56 1.56 45 0 0 1.56 1.56h6.44a.73.72-90 0 1 .72.73v26.39a.86.85 90 0 1-.85.86h-32.82a1.03 1.03-51.998 0 1-1.03-1.03zm-27.238-64.929a26.56 26.06-89.5 0 0-26.291 26.332 26.56 26.06-89.5 0 0 25.827 26.786 26.56 26.06-89.5 0 0 26.291-26.332 26.56 26.06-89.5 0 0-25.827-26.786M770.01 1324.08h27.19a.7.7 38.896 0 1 .7.7v33.64a.91.91-8.144 0 0 .91.91h22.25a.45.45 36.838 0 1 .45.45v23.18a.72.72 33.748 0 1-.72.72h-22.21a.55.55-5.359 0 0-.55.55q-.05 4-.09 45.27c0 3.71.01 6.28 4.29 6.35q13.42.22 18.89.04a.41.41-.682 0 1 .42.41v24.88a.33.33-45 0 1-.33.33q-24.03.01-25.91.06-9.93.25-14.31-1.68c-8.52-3.76-11.5-11.99-11.46-21.13q.11-27.55-.23-54.52a.6.6 89.514 0 0-.6-.59h-13.54a.74.74 36.836 0 1-.74-.74v-23.02a.65.65 45 0 1 .65-.65h13.78a.61.61 44.992 0 0 .61-.61v-34a.55.55-89.968 0 1 .55-.55M177.179 1329.359l28.16-.078a.3.3-54.487 0 1 .301.3l.04 131.599a.3.3 31.664 0 1-.3.3l-42.107.02a.3.3 88.829 0 1-.273-.176l-39.329-86.638a.3.3 26.995 0 0-.056-.083l-.747-.781a.3.3-5.093 0 0-.517.208l.168 87.169a.3.3 31.304 0 1-.3.301H94.12a.3.3-42.742 0 1-.3-.3l-.03-131.59a.3.3 26.62 0 1 .3-.3l38.619-.02a.3.3 32.409 0 1 .272.174l43.288 93.097a.3.3-36.618 0 0 .572-.126l.039-92.776a.3.3-75.147 0 1 .299-.3M933.81 1429.52q-4.9 13.6-15.47 22.24c-14.62 11.96-36.13 14.52-53.81 8.66-22.93-7.6-35.39-28.16-34.48-51.91.98-25.78 18.42-45.93 43.99-49.86 22.89-3.51 44.67 5.76 55.57 26.66 5.18 9.95 6.57 23.13 5.74 34.31a.684.682-87.724 0 1-.68.63h-74.52a.421.418 81.699 0 0-.4.54q3.59 11.87 15.08 15.65c9.5 3.13 22.77 1.23 29.14-7.26a1.169 1.159-71.808 0 1 .94-.48h28.33a.615.608-80.147 0 1 .57.82m-50.511-31.012q18.102.063 22.253.112a.787.786 79.651 0 0 .74-1.073c-3.728-9.475-13.043-14.488-22.939-14.522-9.895-.035-19.245 4.913-23.039 14.362a.787.786-79.252 0 0 .733 1.078q4.15-.02 22.252.043M270.996 1357.87c23.377-.26 43.778 12.53 51.328 34.936 5.734 17.019 2.796 37.49-8.707 51.447-10.373 12.582-25.335 19.008-41.784 19.189-23.378.269-43.779-12.521-51.328-34.927-5.734-17.019-2.797-37.49 8.706-51.447 10.373-12.582 25.336-19.008 41.785-19.198m-1.219 26.143a26.64 25.78-93.6 0 0-24.056 28.206 26.64 25.78-93.6 0 0 27.402 24.968 26.64 25.78-93.6 0 0 24.056-28.206 26.64 25.78-93.6 0 0-27.402-24.968M641.154 1429.431q-4.898 13.615-15.474 22.268c-14.628 11.979-36.157 14.552-53.856 8.695-22.956-7.596-35.438-28.169-34.539-51.942.968-25.805 18.415-45.983 44.007-49.929 22.91-3.525 44.716 5.743 55.636 26.658 5.19 9.957 6.588 23.149 5.763 34.34a.685.683-87.752 0 1-.681.63l-74.59.037a.421.418 81.671 0 0-.401.541q3.6 11.879 15.102 15.657c9.511 3.129 22.793 1.22 29.165-7.281a1.17 1.161-71.836 0 1 .94-.481l28.357-.014a.616.608-80.175 0 1 .571.821m-50.691-30.818q18.118.01 22.272.047a.788.787 79.484 0 0 .738-1.076c-3.759-9.473-13.097-14.463-23.001-14.469-9.905-.005-19.248 4.974-23.019 14.443a.788.787-79.418 0 0 .737 1.077q4.154-.033 22.273-.022M689.13 1383.22c-4.57 1.34-8.29 6.48-3.66 10.38q2.32 1.95 6.61 3.04 1.3.34 27.67 5.6 2.14.43 9.39 2.78c7.46 2.41 14.64 7.65 17.58 13.93 4.71 10.04 2.15 22.84-5.5 31.01-13.48 14.38-39.16 15.6-57.23 11.45-7.91-1.82-17.17-5.92-22.44-12.09q-8.05-9.45-8.92-22.21a.631.624-2.108 0 1 .63-.67h26.95a.711.705-6.711 0 1 .69.54c1.3 5.47 5.63 8.97 11.04 10.39 6.37 1.67 27.86 4.15 28.92-5.86.43-4.04-4.05-5.67-7.64-6.45-13.39-2.92-26.43-4.78-38.86-9.66-8.3-3.26-16.33-10.6-17.98-19.73q-1.02-5.59-.28-11.16c1.53-11.46 12.36-20.23 22.95-23.52q19.52-6.07 39.2-.53c9.86 2.78 18.17 8.27 23.66 16.19q4.67 6.73 4.47 15.94a.88.88-89.012 0 1-.89.86l-24.72-.36a1.399 1.398-8.543 0 1-1.3-.96c-2.2-6.7-7.72-8.42-14.48-9.53q-8.8-1.45-15.86.62M365.93 1372.95a.412.412-26.331 0 0 .74.25c10.17-13.51 25.13-16.15 41.24-14a.827.823-85.67 0 1 .71.83l-.38 25.84a.622.616-86.621 0 1-.68.61c-8.34-.82-14.83-1.34-22.55.23-13.01 2.66-16.51 16.05-16.48 27.65q.04 12.48 0 46.49a.62.61 0 0 1-.62.61h-26.94a.69.69 45 0 1-.69-.69v-72.42a.72.72.404 0 0-.71-.72l-5.55-.08a.71.71.409 0 1-.7-.71v-27.28a.17.17 23.073 0 1 .17-.17h31.75a.69.69-48.544 0 1 .69.69z"></path><path fill="#39a184" fill-rule="evenodd" d="M883.299 1398.508q-18.102-.063-22.252-.043a.787.786-79.252 0 1-.733-1.078c3.794-9.449 13.144-14.397 23.039-14.362 9.896.034 19.211 5.047 22.939 14.522a.787.786 79.651 0 1-.74 1.073q-4.151-.049-22.253-.112M590.472 1383.115c9.904.006 19.242 4.996 23.001 14.469a.788.787 79.484 0 1-.738 1.076q-4.154-.037-22.272-.047-18.119-.011-22.273.022a.788.787-79.418 0 1-.737-1.077c3.771-9.469 13.114-14.448 23.019-14.443M466.892 1383.991a26.56 26.06-89.5 0 1 25.827 26.786 26.56 26.06-89.5 0 1-26.291 26.332 26.56 26.06-89.5 0 1-25.827-26.786 26.56 26.06-89.5 0 1 26.291-26.332M269.777 1384.013a26.64 25.78-93.6 0 1 27.402 24.968 26.64 25.78-93.6 0 1-24.056 28.206 26.64 25.78-93.6 0 1-27.402-24.968 26.64 25.78-93.6 0 1 24.056-28.206" data-source="https://football-logos.cc"></path><!-- source: https://football-logos.cc --></svg>