<svg xmlns="http://www.w3.org/2000/svg" xml:space="preserve" version="1.0" viewBox="276.9 43.04 536.1 722.01"><metadata xmlns:fl="https://football-logos.cc/england/emirates-fa-cup">dl1_b547e9f344f94c47fc3404cc312cbe2a2a0e2205ed90b4c229d908fb569fe90a</metadata><defs><path d="M83 86L71 73L2 4L177 182L223 210L0 103Z"/></defs><!-- Source: https://football-logos.cc --><path d="M539.2 47.7c2.1-1.7 3.9-4.4 6.9-4.6 2.2-.3 4.4.5 5.9 2.2 1.6 1.8 4.4 3 4.2 5.7-.6 2.8-1.6 5.9-.4 8.7 1.3 4.9 6.5 7.4 7.5 12.4.6 4.3-1.8 8.8-5.5 11-1.6 1.1-3.6 1.4-5 2.8.4 2 .6 4.1.5 6.1 8.1.5 16.3 2.6 23 7.3 3.3 2.1 5.5 5.5 6.1 9.3-13.9-3.8-28.4-5.4-42.8-4.6-9.5.4-19 1.9-28.1 4.6.2-4 2.9-7.2 6-9.3 6.8-4.6 14.9-6.7 22.9-7.2q.45-3.45 0-6.9c-5.1-1.3-9.8-5.5-10-11-.2-3.3 1.7-6.2 3.8-8.4 2.9-3 5.3-7.4 3.9-11.7-.3-2.2-1.1-5 1.1-6.4M484.8 128c16.4-8.1 34.6-12 52.8-13.3 8.9-.2 18-.6 26.8.9-7.9 3.4-15.9 7.4-21.4 14.3-2.7 3-4.1 7.3-7.9 9.2-15.3.9-30.4 4.7-44.8 9.9-2.1-6.7-4-13.4-7-19.7zm-63 30.5c1.3-5.7 3.5-11.2 6.8-16.1 2.2 5.1 4.6 10.1 7 15.1 0 2.3-1 4.6-1.2 6.9-2.5 15.7.9 31.7 9.7 44.9 5 7.7 12.8 13.3 21.7 15.7.6 4.2.9 8.5.7 12.7l-2.1.4c-2.9-.2-5.7-1-8.2-2.5-3.4-1.9-7.1-3.5-10.3-5.9-3-2.1-5.3-5.1-8.6-6.8l-.5-.3c-.1-.3-.2-.9-.2-1.2-5.3-6.3-9.3-13.6-12-21.4-.3-.9-.6-1.7-.9-2.6-4.1-12.5-4.7-26-1.9-38.9m74 .8c12-4.4 24.5-7.7 37.3-8.4-3.7 19.8.3 39.8 3.1 59.4 2.7 17.7 6.2 35.3 8.4 53-11.4-.1-22.6 1.7-33.7 3.8 1-4.4 0-8.9-.5-13.3-1.7-10.4-4.9-20.8-11.2-29.4 1-8.1.6-16.2.7-24.3-.7-13.2-2.1-26.6-6-39.3-.3-1.1 1.3-1 1.9-1.5m158 23.4c4.2 10.2 5.4 21.6 2.4 32.3-4 14.4-13.8 27.5-27.3 34.4.2-4.9-1.5-10.4 1.1-14.9 12.2-9.7 19.3-26.7 14.7-42 2.5-3.7 6.3-6.2 9.1-9.8m-126.4 93.4c4.3-.6 9.2-.4 12.7 2.4 2.3 1.8 2.8 5 2.7 7.7v50.2c0 1.3-.2 2.6-.4 3.8-2.7 0-5.5.1-8.2.4-3.1.7-6.3.7-9.4 1.5-8.1-13.2-10.8-28.8-12.1-44-.1-5.3-.7-11.1 2.3-15.8 2.8-4 7.8-5.5 12.4-6.2m-2.7 88.3c6.7-.3 13.3-1.2 20-1.2-.7 6.6-1.9 13.1-2.9 19.6-4.9-.1-9.9.1-14.8.6 0-6.2.2-12.4 0-18.6l-1.7-.1zm-1.6 31.3 1.6-.5c2.2-.1 4.5-.2 6.7-.3 2.6-.1 5.2 0 7.8.2-3.3 15-7.7 29.8-13 44.2-3.7.2-7.3.5-11 .8 5-14.4 8.5-29.2 10.4-44.3zm-12.6 57.4c3.4-.3 6.8-.7 10.1-1.1-3.5 8.1-8 15.8-12.1 23.5l2.6.1c-3.7.4-7.5.6-11.2 1.1 3.6-7.8 7.5-15.5 10.6-23.6" style="fill:#e30613" data-source="https://football-logos.cc"></path><path d="M564.5 115.6c8.4.2 16.8 2.2 24.9 4.5-2.8 2.3-5.7 4.5-7.8 7.4s-5 5.2-6.9 8.4c-1 1.9-2.3 3.6-4 5-2.2-.6-4.4-.9-6.7-1-2.8-1-5.8-.4-8.7-.9-5.6-.8-11.3-.8-16.9 0-1.1 0-2.2.1-3.2.1 3.8-1.9 5.2-6.2 7.9-9.2 5.4-6.9 13.5-10.9 21.4-14.3" style="fill:#b71a23"></path><path d="M589.4 120q7.5 2.1 14.7 5.1c1 .5 2.3.7 2.9 1.8-1.1 4-4.4 6.6-6.3 10.2-1.8 3.3-4.4 6.1-6.1 9.5l-.6.2c-7.6-2.3-15.2-4.9-23.1-5.9 1.7-1.4 3-3.1 4-5 1.8-3.1 4.7-5.4 6.9-8.4 1.9-3 4.8-5.2 7.6-7.5" style="fill:#cd101b"></path><path d="m606.9 127 .2-.8c4.6 2.9 9.6 5.2 14 8.5-4.6 3.1-6.1 9-7.3 14.1-.5 2.6-2.5 4.6-4.2 6.6-4.6-3.3-9.7-6.1-15-8.2l-.1-.5c1.8-3.3 4.3-6.2 6.1-9.5 1.9-3.6 5.3-6.2 6.3-10.2" style="fill:#e00714"></path><path d="M434.5 135.9c6.5-4.5 14.2-6.8 22.1-6.7 5.8.4 11.5 2 16.6 4.8 2.6 7.1 5.5 14.2 7.2 21.6-.8 2.9-2.9 5.1-4.7 7.4-2.2 2.8-3.7 5.9-5.8 8.7-2.4 3.2-5.7 5.7-7.8 9.1-1.5 2.5-3.2 4.9-5 7.1-7.3-17.3-14.9-34.7-22.6-52" style="fill:#c91a21"></path><path d="M613.8 148.8c1.3-5.1 2.7-11 7.4-14.1 5.8 4.4 11.1 9.8 13.6 16.8-5.2 6.8-8.4 14.8-11.3 22.8-7.7 22.8-10.9 47-9.4 71 1.1 13.6 4 27.5 11.3 39.2-1.8-.5-3.2-1.7-4.7-2.7-4.4-2.7-8.9-5-13.7-7-.7-1.3-1.3-2.6-1.6-4.1-1-7.6-3.1-15.1-4-22.7-.1-.9.5-1.7.8-2.5.2.8.6 2.3.8 3.1-.9-5.3-.2-10.7-.8-16-.2-3.1-.1-6.3.3-9.4.1-14.1 2.1-28.2 5.8-41.8.4-1.4.8-2.8 1.2-4.1.5-1.7.9-3.4 1.5-5.1 1.4-4 2.7-8 4.1-11.9-1.7-1.7-3.4-3.4-5.3-4.8 1.5-2.1 3.5-4 4-6.7" style="fill:#ea0210"></path><path d="M533.1 150.3c4.6-.1 9.2-.3 13.8-.7 7.3.7 14.7.4 21.9 2.2q-1.8.75-3.3 2.1c-2 4.6-2.4 9.8-3.4 14.7-1.5 6.8-3.4 13.7-2.7 20.6.6 8.9-.2 17.9.6 26.8.2 3.5-.2 7 .2 10.5.9 7.3.2 14.7 1.5 22 .9 4.7.6 9.6 1.8 14.3-.3.4-.9 1.1-1.1 1.4-5.8-1-11.8-1-17.6-.9-2.2-17.8-5.7-35.3-8.4-53-2.8-19.6-6.8-39.7-3.1-59.4z" style="fill:#b81923"></path><path d="M565.4 153.9q1.5-1.2 3.3-2.1c2.8 0 5.5 1.3 8.3 1.2l.3 1c-1.7 8.8-5.6 17.1-6 26.2-.2 8.3-1.5 16.6-1.2 24.9-.9 17.5 1.5 34.9 2.7 52.4.2 2.7.8 5.3 1.7 7.8-4.2.2-8.2-1.4-12.3-1 .3-.3.9-1 1.1-1.4-1.2-4.7-.9-9.6-1.8-14.3-1.2-7.3-.6-14.7-1.5-22-.4-3.5 0-7-.2-10.5-.8-8.9 0-17.9-.6-26.8-.8-7 1.2-13.9 2.7-20.6 1.2-5 1.5-10.1 3.5-14.8" style="fill:#c8121d"></path><path d="M577.5 154.1c1.6-.9 3.5.7 5.3.9 5.8 1.7 11.5 4 16.8 7-2.6 2.4-2.3 6.2-4 9.1-2.5 4.4-2.7 9.7-3.8 14.6-2.2 8.6-1.8 17.6-2.9 26.4-.9 6 .6 11.9-.2 17.9-1 11.1 1.5 22 2.9 32.9.4 2.3.9 4.6 1.5 6.8-2.8-.9-5.7-1.6-8.6-2.2-3.1-1-6.3-1.5-9.6-1.6 0-.2-.2-.5-.2-.7-.9-2.5-1.4-5.2-1.7-7.8-1.2-17.4-3.6-34.8-2.7-52.4-.3-8.3 1-16.6 1.2-24.9.3-8.9 4.3-17.3 6-26" style="fill:#d70b17"></path><path d="m480.4 155.7.2-.8c4.5 16.4 7.8 33.3 8 50.4.3 20.1-2.7 40.9-12 59-8.7 16.2-23.5 27.6-37.6 38.8.2-.7.5-1.3 1-1.9 7.1-7.9 13.6-16.5 18-26.3 4.9-11.4 7.8-23.5 8.6-35.9l-2.3-.9 2.1-.4c.2-4.2-.1-8.5-.7-12.7l.7-1c-1.4-12.4-5-24.4-9.3-36 1.8-2.3 3.5-4.7 5-7.1 2.2-3.4 5.4-5.9 7.8-9.1 2.1-2.8 3.7-6 5.8-8.7 1.8-2.4 4-4.6 4.7-7.4" style="fill:#c01b21"></path><path d="M595.5 171.1c1.6-2.9 1.4-6.7 4-9.1.9.9 3.3 1.4 2.5 3.1-3 14.6-4.4 29.5-4.2 44.5.6 11.2 2 22.4 4.1 33.4.1.8.6 1.7.2 2.6-.4.8-.9 1.6-.8 2.5.9 7.6 3 15.1 4 22.7.4 1.4 1 2.8 1.7 4.1-4.6-1.9-9.2-3.6-13.9-5-.5-2.3-1.1-4.5-1.5-6.8-1.4-10.9-3.9-21.8-2.9-32.9.8-6-.7-12 .2-17.9 1.1-8.8.8-17.8 2.9-26.4 1.1-5.1 1.2-10.3 3.7-14.8" style="fill:#e40512"></path><path d="M623.4 208.4c2.7-15 6-30.2 13-43.8 7.8 3.8 13.7 10.5 17.4 18.2-2.8 3.5-6.7 6-9.1 9.8-9.2 12.3-14.1 27.4-15.5 42.6l.7-.6c-2.6 4.5-.9 10-1.1 14.9-2 1.1-4.2 1.9-6.5 2.3-1.1-5.8-1-11.6-1-17.5-.2-8.7 1-17.3 2.1-25.9" style="fill:#ae1d22"></path><path d="M437.2 223c3.3 1.7 5.6 4.7 8.6 6.8 3.2 2.4 6.9 3.9 10.3 5.9-1.1 2.2-.8 4.7-1.3 7-.6 5.8-1.7 11.6-3.2 17.2-2.3 7.9-4.9 15.9-9 23.1 2.5-20.2-.8-40.5-5.4-60" style="fill:#c11b21"></path><path d="M499.2 224.5c6.2 8.6 9.4 19 11.2 29.4.5 4.4 1.5 8.9.5 13.3 0 .2-.1.5-.1.7-3.8 0-7.3 1.8-11 2.2-.3-5.3-1.3-10.5-2.8-15.6-.5-1.3-1.4-2.4-2.7-3 2.3-9 3.9-18 4.9-27" style="fill:#b51a25"></path><path d="m494 251.2.4.2c1.2.6 2.2 1.7 2.7 3 1.5 5.1 2.5 10.3 2.8 15.6v.4c-6.6 1.7-13 3.8-19.2 6.6 6-7.6 10.6-16.4 13.3-25.8" style="fill:#c01521"></path><path d="M557 276.3c5.7-1.2 11.6-.5 16.9 1.9 4.3 2.2 7 6.7 6.9 11.5.2 5.4-.2 10.7-.4 16.1-1.8 12.5-5.1 25.1-11.2 36.3l-1.8-.5c1-2.9-1.5-5.4-1.3-8.3.3-3.3-1-6.4-1.1-9.6-1.2-14.3-4.8-28.4-6-42.7-.3-1.7-1.3-3.2-2-4.7" style="fill:#c2141f"></path><path d="M550.7 283.7c-.1-3.7 3.2-6.1 6.3-7.3.8 1.5 1.8 3 1.9 4.8 1.2 14.3 4.8 28.3 6 42.7.2 3.2 1.5 6.3 1.1 9.6-.2 2.9 2.3 5.4 1.3 8.3l1.8.5c-6.2-.5-12.3-1.9-18.5-1.7.1-19.1.1-38 .1-56.9m-39.8 83.4c4.8-.9 9.5-2.3 14.5-2.3l1.7.1c.2 6.2 0 12.4 0 18.6-3.3.3-6.6.8-9.8 1.5-2.4.6-4.9.9-7.4.9l-.6-.9c.8-3.1 1.6-6.2 1.4-9.4-.2-2 .1-4 .9-5.9-.2-.7-.5-1.5-.7-2.2-.1-.1 0-.3 0-.4" style="fill:#b51a24"></path><path d="M485.6 287.5c3.4-1.8 7.2-2.6 11-2.4 3.1-.3 7.1.9 7.8 4.4-.1 5.2.8 10.3 1 15.5 1.1 13.4 4.9 26.5 11 38.5l-.5 1c-2.9.8-5.7 1.9-8.4 3.4-5.7-3.5-10.2-8.6-14.4-13.7-.3-.6-1.2-1.1-1.1-1.9 1.4-3.4.3-7-.2-10.4-.9-4.1.2-8.4-1.2-12.4-2.2-7.2-1.2-15.3-5-22" style="fill:#c21420"></path><path d="M589.7 288c.7-1.5 2.5-2 3.8-2.8.4 1.8.6 4 2.4 5.1l-2 .3c8.8-1.1-.6 1.1 2.7 2-.4 2 1.3 3.6 1.3 5.6.4 5.3 2.9 10.1 3.5 15.3.7 4.8 2.1 9.4 3.2 14-4.8 7.9-11.1 14.8-18.5 20.3-2.9-1.3-5.8-2.5-8.9-3.5-.9-.7.3-1.9.5-2.6.9-1.7 1.7-3.4 2.5-5.1 5.4-13 7.7-27 8.4-41 .3-2.5-.4-5.3 1.1-7.6M462.9 465c4.4-2.2 9-3.9 13.8-5.3-.4 4.1-2.2 8-3.1 12-1 3.3-1.1 6.8-1.9 10.1l-.2.7c-1 .1-2 .2-2.9.4-3.4 1.3-6.8 2.5-10.3 3.6 1.4-7.1 3.4-14 4.6-21.1z" style="fill:#d50c18"></path><path d="M593.5 285.2c5.2-.2 10.9-.3 15.2 3.2 4.4 3.1 5.4 9 5.1 14-1.4 8.9-4.5 17.5-9.1 25.2-1.2-4.6-2.5-9.3-3.2-14-.7-5.2-3.1-10.1-3.5-15.3 0-2-1.7-3.6-1.3-5.6-3.4-1 6.1-3.1-2.7-2l2-.3c-1.8-1.3-2-3.4-2.5-5.2m-130.5 21c2.2-2.3 6.3-4.8 9-1.8l-.2.6c-1.8 3.5-.1 7.3.5 10.9 1.9 7.9 2.1 16 3.1 24 .1 2.1 0 4.1-.5 6.1-6.9-4.9-13.3-11.2-15.9-19.5-2.1-6.8-1.1-15 4-20.3m-6.1 162.2c1.9-1.2 3.8-2.2 5.9-3-1.2 7.1-3.2 14-4.6 21.1l-.1.3c-3.8 1.3-6.9 3.9-10.5 5.5 1.2-5.3 2.1-10.7 3.4-16 .7-3.4 3.4-5.8 5.9-7.9" style="fill:#e30512"></path><path d="M480.6 294c1-2.6 2.8-4.9 5.1-6.5 3.7 6.7 2.8 14.8 4.9 22 1.4 4 .4 8.3 1.2 12.4.5 3.4 1.6 7.1.2 10.4-5.2-6.5-8.3-14.4-10.7-22.2-1.7-5.2-2.3-10.8-.7-16.1" style="fill:#ce0e1b"></path><path d="m638.6 298.4.2-.9c10 13.2 18.6 27.9 22 44.3 4.9 21.8.5 44.8-9 64.6-3-4.5-6.3-8.8-9.3-13.4-5.9-.2-11.8 0-17.7-.2 9.5-10.1 17.4-22.1 21.1-35.7 5.8-19.4 2.8-41.1-7.3-58.7m34.8 54.2c.7 1 1.2 2.2 1.6 3.3 5.1 15.5 9.3 31.5 8.9 47.9.2 16.4-5.6 32.1-12.2 46.9-3.2-4.6-5.9-9.5-8.9-14.3-5.5 0-11.1-.7-16.6-1 10.6-11.5 18.6-25.2 23.4-40.1 4.3-13.8 5.6-28.4 3.8-42.7" style="fill:#a01e22"></path><path d="M621.9 304.2c2-2.6 5.6-.8 7.5 1 4.3 3.4 5.7 9 6.4 14.3-.4 6.7-3.1 13.1-7.6 18.2-4.4 4.9-9.7 9-15.5 12.1-.8-5.1-2.9-9.9-3.3-15 4.7-7 8.1-14.8 10.3-22.9.7-2.6 1-5.3 2.2-7.7" style="fill:#ea0310"></path><path d="M472.2 316c-.6-3.6-2.2-7.4-.5-10.9 1.1 1.8 1.3 3.9 1.8 5.9 2.7 10.4 7.4 20.1 14 28.6-.4 4.5.6 9 .1 13.5-4.6-1.6-8.7-4.4-12.8-7 .5-2 .6-4.1.5-6.1-1-8-1.2-16.1-3.1-24" style="fill:#d80a17"></path><path d="M424.6 315.7q.9-.9 2.1-1.2c-12.3 16.2-17.6 37-16.3 57.2q.6 4.65.9 9.3c1.5 8.8 3.7 17.4 6.5 25.8-2.8 3.6-4.6 7.9-8 11-4.8 4.1-6.9 10.4-11.3 14.8-2.6-8.7-4.3-17.7-5.3-26.8-.4-4-.1-8-.7-12 .4-8.4.8-16.7 2.6-25l.4-.6c4.1-20 15-38 29.1-52.5" style="fill:#b91c22" data-source="https://football-logos.cc"></path><path d="M423.2 349.4a50.8 50.8 0 0 1 5.9-15.6c-1.5 14.9 3.7 29.6 11 42.4 5.2 9.3 12.3 17.4 20.1 24.7-5.5 0-11 .5-16.5.4-3.3 3.8-6.2 8-9.4 11.9h-1.2c-5.4-11.5-9-23.8-10.6-36.4-1.1-9.2-.9-18.4.7-27.4" style="fill:#b61c22"></path><path d="M593.1 352.5c6.2-5.2 11.7-11.2 16.3-17.8.5 5.1 2.5 9.9 3.3 15-5.2 2.9-10.7 5.7-16.4 7.1-1-1.4-2-2.9-3.2-4.3m4.2 47.8c7.4 1.8 14.6 4.5 21.4 7.8.7.4 1.7.9 1.7 1.9 1 14.7 1.9 30.5 10.2 43.2-2.3-.5-4.1-2-6.2-2.9-9.9-4.3-20.5-6.2-31.1-8-1.6-.4-3.2-.8-4.8-1 1.7-5 3-10.2 5.3-15 .4-4.1 2-7.9 2.9-11.9.6-4.6-.1-9.4.6-14.1" style="fill:#db0916"></path><path d="M487.5 339.5c3.6 4.7 7.9 8.9 12.6 12.5-.8 1.6-1.7 3.1-2.6 4.7-2.5.3-4.6-1.4-7-2-1.1-.4-2.1-.9-3-1.6.6-4.6-.4-9 0-13.6" style="fill:#cc0f1c"></path><path d="M544.8 363.2c5.5 0 11.3-.5 16.7.8 1 5-.1 10.1-.5 15.1-.2 1.4 1.1 2.3 1.8 3.3-.8.3-1.7.5-2.5.8-6.1-.6-12.3-.2-18.4-.3 1-6.6 2.2-13 2.9-19.7" style="fill:#b01d26"></path><path d="M561.5 364c4.5.1 8.9.6 13.2 1.6-.5 4-1.5 7.9-1.3 11.9 0 2.3.7 4.8-.6 6.8-4.2-.6-8.4-.6-12.6-1.1.8-.3 1.6-.6 2.5-.8-.7-1-2-1.9-1.8-3.3.4-5 1.5-10 .6-15.1" style="fill:#b91922"></path><path d="M574.7 365.6c6.2.8 12.1 3 18 5v.4c.3 5.7 1.9 11.5.4 17.2-3.4-.9-6.9-1.3-10.3-2.1-3.3-1-6.6-1.5-10-1.8 1.3-2.1.6-4.6.6-6.8-.2-4 .8-7.9 1.3-11.9m-87.5 37.2c5.7-2 11.6-3.5 17.6-4.5 0 5.4-1.6 10.5-1.9 15.9-.1 4.6-2.2 8.8-2.6 13.4s-.5 10.1-4.5 12.9c.9.8 1.9 1.5 2.8 2.1-6.9 1-13.7 2.4-20.4 4.3 2.3-11 6.7-21.5 7.5-32.8.3-3.8 1-7.5 1.5-11.3" style="fill:#c5131e"></path><path d="M500.4 371.1c3.2-1.8 6.7-3 10.3-3.6.2.7.5 1.5.7 2.2-.8 1.8-1.1 3.9-.9 5.9.3 3.2-.5 6.3-1.4 9.4l.7.9.4.5c-3.5.3-7 .9-10.4 1.8-1.1-5.6.7-11.4.6-17.1" style="fill:#bf1520"></path><path d="M487.2 380.8c3.4-4.4 8-7.8 13.3-9.7 0 5.7-1.7 11.5-.6 17.2-5.2 1-10.2 2.9-15.4 3.9 1.3-3.7.2-8.1 2.7-11.4" style="fill:#ca101c"></path><path d="M592.7 371c5.3 1.9 9.9 5.2 13.3 9.6 2.6 3.3 1.5 7.7 2.1 11.6-5-1.4-9.9-2.9-15-4 1.5-5.7-.1-11.5-.4-17.2" style="fill:#d30c18"></path><path d="M527.1 383.5c4.9-.5 9.8-.8 14.8-.6 6.1.1 12.3-.2 18.4.3 4.2.5 8.4.5 12.6 1.1 3.4.2 6.7.8 10 1.8-5.7-.3-11.4-1.4-17.2-2-4 0-8-.3-11.9-.9-9.7-.3-19.3.1-28.9 1.2-2.5.5-5.1.7-7.6.6 3.2-.7 6.5-1.2 9.8-1.5" style="fill:#6d0a10"></path><path d="M531.4 394.9c8.1-.4 16.1-1 24.2-.5 3.3.7 6.7.3 10 .5 5.7.8 11.4 1.2 17.1 2.1l-.8.2c-2.4 0-4.8-.4-7.1.4-1.2 1.7-1.9 3.7-1.8 5.8-.3 6.3-2.1 12.4-4.1 18.3-.9 3.1-3.4 5.4-4.4 8.5s-2.2 5.9-3.3 8.8c-11.7.2-23.4-.2-35.1.3 5.3-14.4 9.7-29.2 13-44.2-2.5-.2-5.1-.3-7.7-.2m-42.1 61.3c5.1-1.1 10.2-2.4 15.4-2.7 1.9-.1 3.9-.3 5.8-.4-3.1 8.1-7 15.8-10.6 23.6l-.1.3c-4.4.2-8.8 1.5-13.2 1.5-.5-.8-1.5-1.5-1.2-2.6q1.35-6.9 3.9-13.5c.7-1.9.2-4.1 0-6.2" style="fill:#b31b25"></path><path d="M517.1 396q3-.45 6-.3h2.6c-1.9 15.1-5.4 30-10.4 44.3l-.3.7c-5.5.1-10.9 1.2-16.3 1.8-1-.7-1.9-1.4-2.8-2.1 4.1-2.9 4.1-8.5 4.5-12.9.4-4.5 2.5-8.8 2.6-13.4.2-5.3 1.9-10.5 1.9-15.9 4-1.2 8.2-1.3 12.2-2.2" style="fill:#b41b24"></path><path d="M574.9 397.6c2.3-.7 4.7-.3 7.1-.4 5.2.6 10.3 1.7 15.4 3-.7 4.7 0 9.4-.5 14.1-1 4-2.5 7.8-2.9 11.9-2.4 4.8-3.6 10-5.3 15-9-1.2-18.1-1.6-27.2-2.3 1.1-2.9 2.2-5.9 3.3-8.8s3.5-5.4 4.4-8.5c2-5.9 3.7-12 4.1-18.3-.3-2 .3-4 1.6-5.7" style="fill:#c7121d"></path><path d="M472.7 409.8c4-3.7 9.6-5 14.5-7-.6 3.8-1.2 7.5-1.5 11.3-.8 11.3-5.3 21.8-7.5 32.8-4.9 1.3-9.5 3.3-13.9 5.8l-1.6.2c3.9-4.8 5.7-10.8 7.2-16.7 1.8-8.7 2.7-17.6 2.8-26.4" style="fill:#d60b17"></path><path d="m417.9 406.7.1-.2c6.4 17.4 15.8 33.8 28.6 47.3-6.9-.2-13.8.6-20.7.8-4.2 5.2-7.8 11-12.4 15.9-6.1-12.2-11.5-24.9-15-38.1 4.5-4.4 6.6-10.6 11.4-14.8 3.4-3 5.2-7.4 8-10.9" style="fill:#b21c22"></path><path d="M515.2 440.1c3.6-.2 7.3-.6 11-.8 11.7-.5 23.4-.1 35.1-.3 9.1.8 18.2 1.2 27.2 2.3 1.6.2 3.2.6 4.8 1-4.7.2-9.3-1.3-14-1.2-4.2-1-8.5-.7-12.8-1-10.7-1.4-21.6-.6-32.4-.8-6.4 1-12.8.6-19.2 1.5z" style="fill:#64080d"></path><path d="M524.8 450.9c5.7.3 11.3-.8 17-.8 5.8.2 11.7-.3 17.5.5 4.7.8 9.6-.2 14.3 1 6.8.4 13.5 1.3 20.2 2.3l1 .7c-3.8-.3-7.6-1-11.5-1.4q-14.1-1.8-28.2-2.1c-4.9-.6-9.9-.7-14.8-.2-6.5.7-13.1.1-19.6 1.3-3.4.4-6.7.8-10.1 1.1-1.9.2-3.9.3-5.8.4 1.4-1.1 3.1-.8 4.8-1 4.9-.7 10.1-1.1 15.2-1.8" style="fill:#72090f"></path><path d="M520.6 452c6.5-1.1 13.1-.6 19.6-1.3 4.9-.5 9.9-.4 14.8.2-6.9 6.2-10.7 15.1-17.6 21.3.2 2.1 3.2 1.4 4.7 1.9-6.6.6-13.3 0-19.8.9-3.7.4-7.4.4-11.2.7l-2.6-.1c4.1-7.8 8.6-15.5 12.1-23.6" style="fill:#b61a24"></path><path d="M555 450.9c9.4.2 18.9.9 28.2 2.1-1.1 2.6-3.8 3.7-6.1 4.9-3.8 1.7-5.8 5.6-9 7.9-2.9 2.7-6.9 3.9-9.3 7.1 3.4.8 7 .6 10.4 1.5-9 .2-18-.6-27-.4-1.6-.5-4.5.3-4.7-1.9 6.9-6.1 10.7-14.9 17.5-21.2" style="fill:#ca111c"></path><path d="M583.2 453.1c3.8.4 7.6 1.1 11.5 1.4 9.8 1.5 19.5 4 28.8 7.5-3.3 3.1-3.6 7.9-6.2 11.4q-2.4 3.15-4.2 6.6c-9.8-1.9-19.6-3.3-29.5-4.2-4.8-.8-9.7-.2-14.4-1.3-3.4-1-7-.7-10.3-1.5 2.4-3.2 6.4-4.4 9.3-7.1 3.3-2.4 5.3-6.2 9-7.9 2.2-1.2 4.9-2.3 6-4.9" style="fill:#dd0814"></path><path d="M476.7 459.6c4.2-1.2 8.4-2.5 12.6-3.4.2 2.1.7 4.2 0 6.3q-2.55 6.6-3.9 13.5c-.3 1 .7 1.8 1.2 2.6l.4.5c-5.3.1-10.2 2.4-15.4 2.8.8-3.3.9-6.8 1.9-10.1 1-4 2.8-7.8 3.1-12z" style="fill:#c4131e"></path><path d="M617.3 473.4c2.7-3.5 3-8.3 6.2-11.4 5 2.1 10.1 4.3 14.4 7.6 2.5 2 4.2 4.8 4.8 8 .9 4.9 2.1 9.9 2.7 14.8-9.6-6.7-21.1-9.9-32.4-12.4 1.2-2.3 2.6-4.5 4.3-6.6" style="fill:#eb020f"></path><path d="M499.6 515.2c3.6-.8 7.3.4 9.9 3 3.6 3.9 3.3 11-1.1 14.2-5 4.2-13.8 2.2-15.9-4.1-1.9-5.1.7-10.8 5.9-12.7.3-.2.7-.3 1.2-.4m-222.7 5c15.3.2 30.6 0 45.9.1 7.6-.1 15.6.1 22.6 3.5 5.7 2.9 10.6 8.2 11.5 14.7-4.6-2.6-9.5-5-14.8-5.8-11.9-2-24-.5-36-1.3 2.1 3.1 1.8 6.9 2.4 10.4.4 4.2.1 8.4.1 12.6 3.9.1 7.8-.1 11.7.1 2 .4 4 .7 6 .8 7.2 1.9 13.1 6.9 16.3 13.6-4.4-2.6-9.5-3.9-14.7-3.8-6.4 0-12.9.1-19.3.1.1 12.6-.2 25.1.2 37.7 0 3.4 1.9 7.7 5.8 7.7 9 .1 18 0 27 0 6.3 0 13-2.2 17-7.5-.1 4.5.4 9.7-2.8 13.3-3.5 4.6-9.6 5.7-15 5.7H293c-2.5-.1-4.2-2.2-5.1-4.3-1.9-4.6-1.9-9.7-1.9-14.6v-62.3c-.2-7.7-3.4-15.2-9.1-20.7m372.6 23.7c9.2-5.1 16.7-12.9 22.5-21.6v18.6h17.8c0 4.2.1 8.5 0 12.8-5.3-3.2-11.7-3.7-17.8-3.4-.1 18.6 0 37.1 0 55.7-.1 6.3 3 12.3 8.3 15.8h-20.8c-3.3.3-5.1-3-6.2-5.6-1.5-5-1.2-10.3-1.2-15.5v-50.5c-4.4-.4-8.8-.1-13.3-.3 3.3-2.5 7.3-3.8 10.7-6.1m-126.3-3c5.1 0 10.2-.1 15.4 0 3.2.4 6.8 1.5 8.5 4.5 2 3.1 2.2 7 3.2 10.5 1.9-6.1 5.8-12 12.1-14.1 3.7-.4 7.8-.8 11.2 1 2.2 1.2 4.5 3.2 4.4 6v12c-2.2-1.6-4.2-3.5-6.8-4.4-3.3-1.5-6.9-1.3-10.4-.9-5 1.4-9.6 5-10.5 10.3v40.2c.1 6.2 3.4 11.8 8 15.9-6.9.1-13.8 0-20.6 0-2.2.2-3.9-1.6-4.8-3.5-1.9-4.1-2.2-8.8-2.2-13.2v-47.8c.2-6.3-2.1-13-7.5-16.5m-161.9 0c6.2.3 12.7-1 18.7 1.2 5.3 2.2 7.5 8 8.2 13.3 2.1-5.9 6.4-11.2 12.4-13.5 11.4-4.2 26.2 1.2 30.3 13.1 2.3-3.9 4.3-8.3 8.2-10.9 7-5 16.5-4 24.1-.9 6.9 3 11.4 9.9 11.4 17.5.1 15.4 0 30.8.1 46.2.2 5.9 3.6 11.1 7.9 14.9-7.2.1-14.3.1-21.5 0-2 0-3.3-1.9-4.2-3.5-2.2-4.7-2.3-9.9-2.2-15 0-12.8.1-25.6 0-38.4-.5-6.5-7.1-11.2-13.4-10.4-4.4 1-8.9 4.1-9.6 8.8-.2 14.2.4 28.3.2 42.5-.1 6.2 3.4 11.8 8 15.9-7.1.2-14.3.1-21.4 0-2 .2-3.3-1.7-4.2-3.2-1.5-3.1-2.2-6.6-2.2-10.1v-41.8c.1-3.9-1.7-7.7-4.9-10.1-5.8-4.8-15.6-1.4-18.2 5.3-.3 14.7 0 29.3-.1 44-.2 6.5 3.6 12.4 8.5 16.3-7-.1-13.9.1-20.9-.1-2.4-.2-4.5-1.7-5.4-3.9-1.5-2.8-1.5-6.1-2.2-9.1-.2-17.9 0-35.7-.1-53.6-.1-5.6-2.7-11.4-7.5-14.5m128.2 4.9c-1-1.9-3-3-3.9-5 6.2.4 12.7-.9 18.7 1.1 4.2 1.6 6.1 6.1 7.2 10.2.4 4 .5 8 .4 12-.2 13.4-.1 26.7-.1 40.1-.1 6.9 3 13.4 8.5 17.6h-21c-3 .3-4.8-2.6-5.6-5-1.9-5.3-1.7-11.2-1.7-16.7-.1-11.7.3-23.3.2-35-.1-6.4.7-13.3-2.8-19.1m97.3.8c9.4-5.9 21.6-7.8 32-3.3 6.4 2.8 12.4 8.4 12.9 15.7v41.7c-.1 4.9 0 10 2.6 14.4 1.3 2.8 4 4.6 5.6 7.2-7.2-1.1-14.6-.2-21.8-.7-3.3-1-4.6-4.9-5.2-8l-1.1.2c-3.4 6-10.5 8.4-17 8.3-5.7-.5-11.9-2-15.9-6.4-4.4-4.3-5.2-10.8-4.7-16.6.5-5.3 2.8-10.3 6.6-14.1 6.3-6.6 15.1-9.8 23.2-13.4 4.1-1.9 8.2-4.8 9.6-9.2 1-3.2.8-7.1-1.8-9.5-3.3-3.3-8.3-3.3-12.6-2.8-5.6 1.2-9.7 5.8-12.3 10.6-.1-4.7 0-9.4-.1-14.1m12.1 37.7c-4.9 4.3-7.6 10.7-7.3 17.2-.2 3.7 1.5 7.6 4.8 9.5 2.9 1.8 6.6 1.6 9.8 1.1 2.7-1.1 6.6-2.8 6.1-6.2-.1-10.5 0-21 0-31.6-4 3.9-9.4 6-13.4 10m103.4-34.6c9.7-10.4 26.8-12 38.7-4.9 6.1 3.5 9.3 10.5 8 17.5-1.9 8.5-8.6 14.8-15.5 19.4-6.5 4.4-15.1 5.9-20 12.5.3 6.2 3.6 12.6 8.9 16 4 2.6 9.1 2.5 13.7 1.9 5.4-1.4 9.6-5.6 12.5-10.2.2 4.9.1 9.7.1 14.6-6.4 4.4-14.3 5-21.8 5.7-9-.1-18.4-2.9-24.9-9.4-8.4-7.8-12-19.6-11.7-30.8.2-11.7 3.7-23.9 12-32.3m15.1.7c-3.7 4.9-4.4 11.2-5.3 17-.5 5.7-.5 11.5-.1 17.2 3.8-3.3 8.5-5.4 11.9-9 5.1-5.1 7.9-12 7.8-19.2-.2-2.8-.8-6-3.1-7.8-3.6-2.5-8.5-1.6-11.2 1.8m56.7-9.3c9.6-2 19.7 0 27.7 5.6 0 4.7.1 9.3-.1 14-2.6-5.4-7.5-10-13.5-11.2-4-.8-8.8-.4-11.9 2.5-2.7 2.7-2 7.2.3 9.9 2.9 3.6 7.4 5.2 11.2 7.7 6.9 4.2 14.2 9.1 17.2 17s2.2 17.5-3.3 24.2c-5.6 7.3-14.7 10.8-23.7 11.3-7.1-.5-14.2-2-20.3-5.7-.1-5-.1-10.1 0-15.1 2.5 5.1 6.6 10 12.4 11.4 7.3 1.6 16.3-2.3 18.3-9.9 1.6-5.5-2.1-10.9-6.7-13.6-6.5-3.8-13.3-7.4-18.4-13-5.2-5.4-7.1-13.4-5.8-20.6 2-7.6 9.2-12.6 16.5-14.4M529.5 649.9c12.4-5.2 26.5-6 39.6-3.1 11.4 2.5 21.3 9.4 29.1 17.9-5.9 5.8-11.9 11.4-18 16.9-3.6-3.5-7.3-7.2-12.1-9.1-9.4-4.4-20.9-4.1-29.8 1.3-8.8 5.1-14.1 14.9-15.5 24.9-.7 8-.4 16.3 3.2 23.6 4.2 9.4 13.2 16.9 23.6 18.1 11.5 1.9 23.3-3.3 30.6-12.2 6 5.8 12.4 11.2 18 17.3-5.9 6-12.5 11.5-20.3 14.9-10.5 4.5-22.2 5.5-33.5 4-12.4-1.7-24.3-7.4-33-16.5-7.7-7.4-12.3-17.4-14.9-27.6-1.1-5.7-1.6-11.4-1.7-17.2.7-7.4 1.6-15 4.6-22 5.5-14.1 16.3-25.3 30.1-31.2m-243.7-2h79.3c0 8 .1 16-.1 24-17.7-.1-35.4 0-53.1 0 .1 7.7-.1 15.3.1 23q16.65-.15 33.3 0v23.4h-33.4c-.1 14.7 0 29.4 0 44.1-8.7.2-17.5 0-26.2.1.2-38.2.2-76.4.1-114.6m110.2.4c7-.6 14.1-.1 21.1-.2 16.2 38.1 32.6 76.2 48.6 114.4-9.3 0-18.7.2-28-.1-3.4-8.3-6.9-16.5-10.6-24.7-13.7.1-27.4 0-41.1 0-3.5 8.2-7 16.5-10.6 24.8-9.3 0-18.6 0-27.9-.1 12.4-28.8 24.6-57.8 37-86.7 3.8-9.2 8.1-18.2 11.5-27.4m10.3 36.7c-3.7 9.7-7.5 19.3-11.8 28.8 8.1.3 16.3.1 24.4.1-3.8-9.7-8.2-19.2-11.6-29.1zm203.3-37.1c8.7.2 17.5-.1 26.2.2-.1 20 0 40.1 0 60.1 0 7.7-.7 15.9 3 22.9 2.5 5.4 8 8.7 13.8 9.6 7.3 1.1 15.8.2 21.3-5.2 4.9-5.2 5.7-12.8 6.3-19.6v-68c8.6.1 17.2 0 25.8 0 0 24.3.1 48.7 0 73-.2 11.5-3.9 23.5-12.4 31.6-8.8 8.5-21.4 11.9-33.4 12.2-11.8.4-24.2-1.8-33.9-8.7-7.1-5.3-12.3-12.7-14.6-21.3-.3-1.2-.5-2.3-.9-3.5-1.7-8.7-1.1-17.6-1.2-26.4 0-19-.1-38 0-56.9m112.6.1c15.2-.3 30.3 0 45.5-.1 10.9.3 22.3 2 31.3 8.4 7 4.7 11.6 12.6 13 20.9.6 2.9.4 5.8 1 8.7-.5 7.4-1.7 15.2-6 21.4-5.5 8.4-15.2 13-24.8 14.9-11.1 2.4-22.5 1.5-33.7 1.7-.1 12.8 0 25.6 0 38.4-8.7-.1-17.5.1-26.2-.1V648m26.2 23.8v28.4c10-.5 20.5 1.6 29.9-2.5 8-3.6 9.4-15.5 3.3-21.5-3.8-3.3-9-4.3-13.9-4.5-6.4.1-12.8.1-19.3.1" style="fill:#d71921" data-source="https://football-logos.cc"></path><!-- source: https://football-logos.cc --></svg>